if (_typeface_js && _typeface_js.loadFace) _typeface_js.loadFace({"glyphs":{"S":{"x_min":17.015625,"x_max":693,"ha":746,"o":"m 371 -13 q 247 2 303 -13 q 147 43 192 17 q 70 106 103 70 q 17 185 37 143 l 175 277 q 251 192 207 225 q 367 159 294 159 q 463 186 428 159 q 499 254 499 213 q 461 330 499 305 q 357 384 423 355 l 308 405 q 212 453 255 427 q 138 515 169 480 q 91 594 108 549 q 75 698 75 638 q 95 800 75 752 q 152 882 115 847 q 241 936 189 917 q 360 956 294 956 q 520 920 453 956 q 636 800 587 885 l 485 703 q 430 767 460 748 q 360 787 401 787 q 292 763 317 787 q 267 703 267 739 q 295 636 267 659 q 386 585 323 613 l 434 564 q 545 509 497 537 q 625 445 593 480 q 675 364 658 409 q 693 258 693 319 q 668 142 693 192 q 601 56 644 91 q 499 4 558 21 q 371 -13 440 -13 "},"¦":{"x_min":55,"x_max":290,"ha":337,"o":"m 173 240 q 89 272 124 240 q 55 358 55 305 q 89 442 55 409 q 173 475 124 475 q 255 442 220 475 q 290 358 290 409 q 255 272 290 305 q 173 240 220 240 "},"/":{"x_min":-22.21875,"x_max":548.65625,"ha":561,"o":"m 365 1003 l 548 1003 l 161 -178 l -22 -178 l 365 1003 "},"y":{"x_min":12.5,"x_max":668.109375,"ha":681,"o":"m 247 55 l 12 592 l 219 592 l 304 364 q 318 317 311 343 q 333 267 326 290 q 345 211 340 239 q 356 267 351 239 q 370 317 362 290 q 386 364 377 343 l 477 592 l 668 592 l 280 -294 l 93 -294 l 247 55 "},"≈":{"x_min":55,"x_max":290,"ha":337,"o":"m 173 240 q 89 272 124 240 q 55 358 55 305 q 89 442 55 409 q 173 475 124 475 q 255 442 220 475 q 290 358 290 409 q 255 272 290 305 q 173 240 220 240 "},"Ž":{"x_min":37.5,"x_max":770.890625,"ha":843,"o":"m 37 16 l 470 774 l 113 774 l 113 945 l 770 945 l 770 928 l 338 171 l 747 171 l 747 0 l 37 0 l 37 16 m 205 1313 l 355 1313 l 433 1222 l 512 1313 l 662 1313 l 441 1013 l 426 1013 l 205 1313 "},"Á":{"x_min":29.171875,"x_max":893.125,"ha":922,"o":"m 575 270 l 506 433 q 486 487 495 458 q 468 543 476 516 q 450 602 458 572 q 431 543 440 572 q 414 487 423 516 q 394 433 405 458 l 326 270 l 575 270 m 444 953 l 461 953 l 893 0 l 688 0 l 644 107 l 261 107 l 216 0 l 29 0 l 444 953 m 456 1300 l 670 1300 l 526 1039 l 384 1039 l 456 1300 "},"g":{"x_min":19,"x_max":663.75,"ha":683,"o":"m 217 -45 q 201 -90 201 -64 q 230 -147 201 -126 q 337 -168 259 -168 q 445 -149 419 -168 q 471 -103 471 -130 q 451 -68 471 -78 q 373 -55 431 -57 l 217 -45 l 217 -45 m 337 304 q 402 326 380 304 q 425 387 425 349 q 402 445 425 423 q 337 467 380 467 q 272 445 294 467 q 250 387 250 423 q 272 326 250 349 q 337 304 294 304 m 655 593 l 655 460 l 568 460 q 589 387 589 428 q 571 300 589 340 q 521 230 554 259 q 443 184 488 201 q 340 168 397 168 q 219 191 266 168 q 204 155 204 179 q 218 121 204 134 q 265 107 233 109 l 410 101 q 598 46 533 94 q 663 -88 663 -1 q 645 -176 663 -136 q 588 -245 627 -216 q 487 -291 549 -274 q 337 -308 424 -308 q 98 -253 177 -308 q 19 -114 19 -198 q 48 -34 19 -65 q 127 16 77 -3 q 57 135 57 55 q 138 252 57 216 q 86 387 86 309 q 104 474 86 434 q 156 542 123 513 q 236 588 190 572 q 340 604 283 604 q 427 593 386 604 l 655 593 "},"²":{"x_min":55,"x_max":290,"ha":337,"o":"m 173 240 q 89 272 124 240 q 55 358 55 305 q 89 442 55 409 q 173 475 124 475 q 255 442 220 475 q 290 358 290 409 q 255 272 290 305 q 173 240 220 240 "},"–":{"x_min":41.671875,"x_max":522.265625,"ha":564,"o":"m 41 399 l 522 399 l 522 232 l 41 232 l 41 399 "},"ë":{"x_min":52.78125,"x_max":694.375,"ha":747,"o":"m 504 347 q 466 423 497 395 q 380 451 436 451 q 288 425 325 451 q 241 347 252 399 l 504 347 m 244 239 q 295 168 258 193 q 397 143 333 143 q 486 158 448 143 q 545 190 523 174 l 652 74 q 551 12 609 37 q 400 -13 493 -13 q 256 9 320 -13 q 147 73 193 32 q 77 171 101 114 q 52 296 52 228 q 77 420 52 363 q 147 517 102 477 q 250 581 191 558 q 379 604 309 604 q 519 576 458 604 q 620 499 580 548 q 679 383 661 449 q 693 239 698 316 l 244 239 l 244 239 m 222 703 q 182 711 201 703 q 149 734 164 719 q 126 767 135 748 q 117 808 117 786 q 126 849 117 830 q 149 882 135 868 q 182 905 164 897 q 222 914 201 914 q 296 883 264 914 q 328 808 328 852 q 296 733 328 764 q 222 703 264 703 m 524 703 q 484 711 503 703 q 451 734 466 719 q 428 767 437 748 q 419 808 419 786 q 428 849 419 830 q 451 882 437 868 q 484 905 466 897 q 524 914 503 914 q 598 883 566 914 q 630 808 630 852 q 598 733 630 764 q 524 703 566 703 "},"ƒ":{"x_min":45.84375,"x_max":580.609375,"ha":567,"o":"m 129 251 l 45 251 l 45 401 l 145 401 l 172 624 q 245 802 186 746 q 404 858 304 858 q 511 835 470 858 q 580 773 552 812 l 469 666 q 446 691 458 682 q 415 699 434 699 q 376 685 391 699 q 356 639 361 671 l 329 401 l 476 401 l 476 251 l 312 251 l 250 -294 l 66 -294 l 129 251 "},"Î":{"x_min":-30.5625,"x_max":426.421875,"ha":399,"o":"m 103 945 l 297 945 l 297 0 l 103 0 l 103 945 m 190 1339 l 205 1339 l 426 1039 l 276 1039 l 198 1129 l 119 1039 l -30 1039 l 190 1339 "},"e":{"x_min":52.78125,"x_max":694.375,"ha":747,"o":"m 504 347 q 466 423 497 395 q 380 451 436 451 q 288 425 325 451 q 241 347 252 399 l 504 347 m 244 239 q 295 168 258 193 q 397 143 333 143 q 486 158 448 143 q 545 190 523 174 l 652 74 q 551 12 609 37 q 400 -13 493 -13 q 256 9 320 -13 q 147 73 193 32 q 77 171 101 114 q 52 296 52 228 q 77 420 52 363 q 147 517 102 477 q 250 581 191 558 q 379 604 309 604 q 519 576 458 604 q 620 499 580 548 q 679 383 661 449 q 693 239 698 316 l 244 239 l 244 239 "},"Ã":{"x_min":29.171875,"x_max":893.125,"ha":922,"o":"m 575 270 l 506 433 q 486 487 495 458 q 468 543 476 516 q 450 602 458 572 q 431 543 440 572 q 414 487 423 516 q 394 433 405 458 l 326 270 l 575 270 m 444 953 l 461 953 l 893 0 l 688 0 l 644 107 l 261 107 l 216 0 l 29 0 l 444 953 m 212 1051 q 261 1198 218 1150 q 366 1246 304 1246 q 416 1237 394 1246 q 454 1218 437 1229 q 491 1193 477 1202 q 520 1183 505 1183 q 549 1198 540 1183 q 561 1246 558 1214 l 687 1233 q 638 1086 682 1134 q 533 1039 595 1039 q 484 1047 505 1039 q 445 1066 462 1055 q 408 1091 422 1082 q 379 1101 394 1101 q 338 1039 344 1101 l 212 1051 "},"J":{"x_min":18.46875,"x_max":600,"ha":689,"o":"m 310 -13 q 205 0 251 -13 q 123 39 158 14 q 61 96 87 63 q 18 165 35 128 l 176 261 q 225 190 199 220 q 301 161 251 161 q 344 166 325 161 q 377 186 364 172 q 398 223 390 199 q 406 283 406 247 l 406 945 l 600 945 l 600 280 q 579 149 600 205 q 519 57 558 94 q 427 4 480 21 q 310 -13 374 -13 "},"»":{"x_min":44.453125,"x_max":655.609375,"ha":700,"o":"m 180 278 l 44 518 l 225 518 l 356 284 l 356 273 l 225 44 l 44 44 l 180 278 m 479 278 l 343 518 l 523 518 l 655 284 l 655 273 l 523 44 l 343 44 l 479 278 "},"∆":{"x_min":55,"x_max":290,"ha":337,"o":"m 173 240 q 89 272 124 240 q 55 358 55 305 q 89 442 55 409 q 173 475 124 475 q 255 442 220 475 q 290 358 290 409 q 255 272 290 305 q 173 240 220 240 "},"©":{"x_min":40,"x_max":785,"ha":825,"o":"m 422 161 q 336 176 375 161 q 269 218 297 191 q 224 282 240 245 q 209 364 209 320 q 224 448 209 410 q 268 513 240 485 q 334 556 296 541 q 417 571 372 571 q 522 548 480 571 q 589 496 564 524 l 490 405 q 429 435 467 435 q 382 416 397 435 q 367 364 367 396 q 383 314 367 335 q 432 294 400 294 q 470 303 455 294 q 492 323 485 312 l 592 235 q 526 183 567 206 q 422 161 486 161 m 415 75 q 525 95 473 75 q 614 154 576 116 q 676 245 653 191 q 699 365 699 298 q 676 485 699 432 q 614 576 653 539 q 525 635 576 614 q 415 656 473 656 q 303 635 355 656 q 211 576 251 614 q 148 485 171 539 q 126 365 126 432 q 148 245 126 298 q 211 154 171 191 q 303 95 251 116 q 415 75 355 75 m 415 -7 q 272 20 340 -7 q 152 98 204 48 q 70 216 101 148 q 40 365 40 284 q 70 514 40 446 q 152 632 101 582 q 272 710 204 682 q 415 738 340 738 q 556 710 488 738 q 674 632 623 682 q 755 514 725 582 q 785 365 785 446 q 755 216 785 284 q 674 98 725 148 q 556 20 623 48 q 415 -7 488 -7 "},"˘":{"x_min":122.234375,"x_max":572.265625,"ha":695,"o":"m 347 695 q 188 750 247 695 q 122 889 130 805 l 265 910 q 289 852 270 873 q 347 831 308 831 q 404 852 386 831 q 429 910 423 873 l 572 889 q 505 750 563 805 q 347 695 447 695 "},"≥":{"x_min":55,"x_max":290,"ha":337,"o":"m 173 240 q 89 272 124 240 q 55 358 55 305 q 89 442 55 409 q 173 475 124 475 q 255 442 220 475 q 290 358 290 409 q 255 272 290 305 q 173 240 220 240 "},"ò":{"x_min":53,"x_max":704,"ha":757,"o":"m 379 145 q 476 186 441 145 q 512 294 512 227 q 476 401 512 360 q 379 443 441 443 q 280 401 316 443 q 245 294 245 360 q 280 186 245 227 q 379 145 316 145 m 379 -13 q 250 9 309 -13 q 147 73 191 32 q 77 170 102 113 q 53 294 53 227 q 77 419 53 362 q 147 517 102 476 q 250 581 191 558 q 379 604 309 604 q 506 581 447 604 q 610 517 566 558 q 679 419 654 476 q 704 294 704 362 q 679 170 704 227 q 610 73 654 113 q 506 9 566 32 q 379 -13 447 -13 m 157 956 l 370 956 l 443 695 l 301 695 l 157 956 "},"^":{"x_min":75,"x_max":534.765625,"ha":610,"o":"m 297 954 l 312 954 l 534 621 l 384 621 l 304 719 l 225 621 l 75 621 l 297 954 "},"«":{"x_min":44.453125,"x_max":655.609375,"ha":700,"o":"m 44 277 l 44 288 l 176 518 l 356 518 l 220 283 l 356 44 l 176 44 l 44 277 m 343 277 l 343 288 l 475 518 l 655 518 l 519 283 l 655 44 l 475 44 l 343 277 "},"D":{"x_min":99,"x_max":886,"ha":951,"o":"m 379 171 q 516 193 458 171 q 611 255 573 215 q 666 350 648 296 q 685 472 685 405 q 666 594 685 539 q 611 689 648 648 q 516 751 573 729 q 379 774 458 774 l 293 774 l 293 171 l 379 171 m 99 945 l 389 945 q 588 910 497 945 q 746 812 680 875 q 849 663 812 750 q 886 472 886 576 q 849 281 886 368 q 746 132 812 194 q 589 34 680 69 q 389 0 498 0 l 99 0 l 99 945 "},"∙":{"x_min":55,"x_max":290,"ha":346,"o":"m 173 240 q 89 272 124 240 q 55 358 55 305 q 89 442 55 409 q 173 475 124 475 q 255 442 220 475 q 290 358 290 409 q 255 272 290 305 q 173 240 220 240 "},"ł":{"x_min":11.546875,"x_max":393.40625,"ha":397,"o":"m 106 259 l 11 206 l 11 387 l 106 440 l 106 1003 l 292 1003 l 292 544 l 393 601 l 393 420 l 292 363 l 292 0 l 106 0 l 106 259 "},"ÿ":{"x_min":12.546875,"x_max":667.96875,"ha":681,"o":"m 247 55 l 12 592 l 219 592 l 304 364 q 318 317 311 343 q 333 267 326 290 q 345 211 340 239 q 357 267 351 239 q 370 317 362 290 q 386 364 377 343 l 477 592 l 667 592 l 280 -294 l 93 -294 l 247 55 m 187 703 q 147 711 166 703 q 114 734 129 719 q 91 767 100 748 q 82 808 82 786 q 91 849 82 830 q 114 882 100 868 q 147 905 129 897 q 187 914 166 914 q 261 883 229 914 q 293 808 293 852 q 261 733 293 764 q 187 703 229 703 m 490 703 q 450 711 469 703 q 417 734 432 719 q 394 767 403 748 q 385 808 385 786 q 394 849 385 830 q 417 882 403 868 q 450 905 432 897 q 490 914 469 914 q 564 883 532 914 q 596 808 596 852 q 564 733 596 764 q 490 703 532 703 "},"Ł":{"x_min":10.203125,"x_max":734.8125,"ha":793,"o":"m 113 245 l 10 211 l 10 380 l 113 415 l 113 945 l 307 945 l 307 483 l 557 569 l 557 400 l 307 314 l 307 171 l 734 171 l 734 0 l 113 0 l 113 245 "},"í":{"x_min":80,"x_max":382.84375,"ha":349,"o":"m 80 592 l 268 592 l 268 0 l 80 0 l 80 592 m 168 956 l 382 956 l 238 695 l 96 695 l 168 956 "},"ˆ":{"x_min":118.0625,"x_max":575.046875,"ha":695,"o":"m 338 995 l 354 995 l 575 695 l 425 695 l 347 785 l 268 695 l 118 695 l 338 995 "},"w":{"x_min":12.5,"x_max":944.515625,"ha":957,"o":"m 12 592 l 219 592 l 287 423 q 302 381 294 404 q 316 339 309 358 q 330 291 323 315 q 344 339 337 315 q 359 381 351 358 q 379 423 368 404 l 476 607 l 490 607 l 593 423 q 612 382 602 405 q 629 340 622 359 q 644 291 637 315 q 658 339 651 315 q 672 381 665 358 q 687 423 679 404 l 757 592 l 944 591 l 668 -15 l 651 -15 l 523 222 q 506 258 513 237 q 494 297 500 279 q 481 340 488 318 q 468 297 475 318 q 453 257 461 277 q 437 222 445 237 l 301 -15 l 286 -15 l 12 592 "},"$":{"x_min":19.65625,"x_max":654.359375,"ha":697,"o":"m 396 133 q 464 157 448 140 q 480 195 480 174 q 464 239 480 219 q 396 274 448 259 l 396 133 l 396 133 m 303 595 q 246 575 262 591 q 230 537 230 559 q 243 498 230 513 q 303 470 255 483 l 303 595 l 303 595 m 303 -9 q 195 12 241 -4 q 114 52 148 29 q 56 104 79 76 q 19 159 33 131 l 157 237 q 209 174 176 202 q 303 136 241 145 l 303 295 q 116 385 171 326 q 61 522 61 444 q 75 597 61 560 q 118 664 89 634 q 194 712 148 694 q 303 735 240 731 l 303 876 l 396 876 l 396 733 q 527 683 475 720 q 608 610 580 646 l 487 519 q 454 556 476 535 q 396 587 432 576 l 396 448 q 589 360 523 419 q 654 215 654 302 q 591 54 654 112 q 396 -11 529 -4 l 396 -161 l 303 -161 l 303 -9 l 303 -9 "},"∫":{"x_min":55,"x_max":290,"ha":337,"o":"m 173 240 q 89 272 124 240 q 55 358 55 305 q 89 442 55 409 q 173 475 124 475 q 255 442 220 475 q 290 358 290 409 q 255 272 290 305 q 173 240 220 240 "},"\\":{"x_min":12.5,"x_max":583.375,"ha":561,"o":"m 12 1003 l 195 1003 l 583 -178 l 400 -178 l 12 1003 "},"Ì":{"x_min":-18.234375,"x_max":297,"ha":399,"o":"m 103 945 l 297 945 l 297 0 l 103 0 l 103 945 m -18 1300 l 195 1300 l 267 1039 l 126 1039 l -18 1300 "},"µ":{"x_min":55,"x_max":290,"ha":337,"o":"m 173 240 q 89 272 124 240 q 55 358 55 305 q 89 442 55 409 q 173 475 124 475 q 255 442 220 475 q 290 358 290 409 q 255 272 290 305 q 173 240 220 240 "},"Ç":{"x_min":67,"x_max":947.015625,"ha":1008,"o":"m 478 -7 q 314 46 390 5 q 184 150 239 87 q 98 295 129 213 q 67 472 67 377 q 105 665 67 576 q 208 819 143 754 q 362 919 273 883 q 553 956 451 956 q 774 909 682 956 q 930 762 867 862 l 782 657 q 692 746 748 711 q 553 781 635 781 q 436 757 489 781 q 346 692 383 733 q 287 595 308 651 q 267 472 267 539 q 287 348 267 405 q 346 249 308 291 q 436 184 383 208 q 552 161 488 161 q 699 199 644 161 q 795 299 755 238 l 947 195 q 794 48 887 103 q 573 -13 702 -7 l 573 -54 q 619 -69 597 -58 q 658 -98 641 -80 q 686 -141 676 -116 q 697 -198 697 -166 q 683 -254 697 -230 q 649 -296 670 -278 q 601 -323 628 -314 q 547 -333 574 -333 q 442 -309 481 -333 q 383 -249 403 -285 l 472 -195 q 494 -222 480 -210 q 532 -234 508 -234 q 566 -222 551 -234 q 582 -187 582 -210 q 566 -151 582 -163 q 525 -140 550 -140 l 478 -140 l 478 -7 l 478 -7 "},"’":{"x_min":56,"x_max":281,"ha":337,"o":"m 118 741 q 74 779 93 752 q 56 842 56 806 q 89 922 56 891 q 167 954 122 954 q 246 922 212 954 q 281 844 281 891 q 269 784 281 812 q 239 724 258 756 l 156 583 l 65 583 l 118 741 "},"-":{"x_min":50,"x_max":369.46875,"ha":419,"o":"m 50 420 l 369 420 l 369 253 l 50 253 l 50 420 "},"Q":{"x_min":67,"x_max":1044,"ha":1111,"o":"m 538 304 l 669 410 l 788 273 q 844 472 844 352 q 823 595 844 538 q 764 694 802 652 q 672 759 726 735 q 555 783 619 783 q 437 759 490 783 q 346 694 384 735 q 287 595 308 652 q 267 472 267 538 q 287 348 267 405 q 346 249 308 291 q 437 184 384 208 q 555 161 490 161 q 651 175 609 161 l 538 304 m 1043 -18 l 913 -125 l 773 35 q 670 0 725 12 q 555 -13 615 -13 q 364 23 452 -13 q 209 125 275 60 q 105 278 143 189 q 67 472 67 367 q 105 665 67 576 q 209 818 143 754 q 363 920 275 883 q 555 957 452 957 q 746 920 656 957 q 901 818 835 883 q 1005 665 967 754 q 1044 472 1044 576 q 1008 284 1044 370 q 911 133 973 198 l 1043 -18 "},"M":{"x_min":99,"x_max":1054,"ha":1153,"o":"m 99 954 l 114 954 l 579 442 l 1037 954 l 1054 954 l 1054 0 l 866 0 l 866 354 q 866 406 866 377 q 869 461 867 436 q 873 519 870 490 q 838 470 854 494 q 805 427 823 449 q 771 386 788 405 l 584 176 l 566 176 l 379 386 q 344 427 362 405 q 311 470 326 449 q 278 519 294 494 q 281 461 279 490 q 283 406 282 436 q 285 354 285 377 l 285 0 l 99 0 l 99 954 "},"C":{"x_min":67,"x_max":947.609375,"ha":993,"o":"m 553 -13 q 362 23 451 -13 q 208 125 273 60 q 105 278 143 189 q 67 472 67 367 q 105 665 67 576 q 208 819 143 754 q 362 919 273 883 q 553 956 451 956 q 774 909 682 956 q 930 762 867 862 l 782 657 q 692 746 748 711 q 553 781 635 781 q 436 757 489 781 q 346 692 383 733 q 287 595 308 651 q 267 472 267 539 q 287 348 267 405 q 346 249 308 291 q 436 184 383 208 q 553 161 489 161 q 700 199 644 161 q 796 299 755 238 l 947 195 q 787 43 885 99 q 553 -13 690 -13 "},"œ":{"x_min":53,"x_max":1151.09375,"ha":1204,"o":"m 379 145 q 477 186 442 145 q 513 294 513 227 q 477 401 513 360 q 379 443 442 443 q 281 401 317 443 q 245 294 245 360 q 281 186 245 227 q 379 145 317 145 m 961 347 q 923 423 954 395 q 837 451 893 451 q 745 425 782 451 q 698 347 709 399 l 961 347 m 701 239 q 753 167 715 192 q 854 142 790 142 q 943 158 905 142 q 1003 189 980 174 l 1110 74 q 1008 11 1066 36 q 857 -13 950 -13 q 709 14 771 -13 q 608 89 648 41 q 515 14 572 41 q 379 -13 458 -13 q 250 9 309 -13 q 147 73 191 32 q 78 170 103 113 q 53 294 53 227 q 78 419 53 362 q 147 517 103 476 q 250 581 191 558 q 379 604 309 604 q 514 577 457 604 q 607 502 571 551 q 700 577 643 551 q 836 604 758 604 q 976 575 915 604 q 1078 498 1037 547 q 1136 382 1118 449 q 1150 239 1154 315 l 701 239 l 701 239 "},"!":{"x_min":79,"x_max":314,"ha":393,"o":"m 197 -8 q 113 24 148 -8 q 79 110 79 57 q 113 194 79 161 q 197 227 148 227 q 279 194 244 227 q 314 110 314 161 q 279 24 314 57 q 197 -8 244 -8 m 91 945 l 301 945 l 270 321 l 122 321 l 91 945 "},"ç":{"x_min":53,"x_max":625.578125,"ha":665,"o":"m 290 -3 q 193 36 237 9 q 118 102 150 63 q 70 190 87 141 q 53 297 53 240 q 77 420 53 363 q 145 517 101 477 q 248 581 189 558 q 376 604 307 604 q 523 573 465 604 q 625 485 581 542 l 492 377 q 444 422 475 405 q 376 440 413 440 q 279 399 313 440 q 245 297 245 359 q 278 190 245 231 q 376 150 312 150 q 447 167 420 150 q 495 205 474 184 l 621 94 q 524 17 578 45 q 385 -13 470 -10 l 385 -54 q 431 -69 409 -58 q 470 -98 453 -80 q 498 -141 488 -116 q 509 -198 509 -166 q 495 -254 509 -230 q 461 -296 482 -278 q 413 -323 440 -314 q 359 -333 386 -333 q 254 -309 293 -333 q 195 -249 215 -285 l 284 -195 q 306 -222 292 -210 q 344 -234 320 -234 q 378 -222 363 -234 q 394 -187 394 -210 q 378 -152 394 -163 q 337 -140 362 -140 l 290 -140 l 290 -3 l 290 -3 "},"È":{"x_min":99,"x_max":743.03125,"ha":825,"o":"m 99 945 l 723 945 l 723 774 l 293 774 l 293 474 l 672 474 l 672 307 l 293 307 l 293 171 l 743 171 l 743 0 l 99 0 l 99 945 m 214 1300 l 427 1300 l 500 1039 l 358 1039 l 214 1300 "},"ﬁ":{"x_min":42.390625,"x_max":754,"ha":810,"o":"m 141 436 l 42 436 l 42 592 l 141 592 l 141 790 q 359 1021 141 1021 q 449 1007 415 1021 q 515 966 484 993 l 427 834 q 406 847 419 841 q 377 853 394 853 q 342 839 355 853 q 329 793 329 825 l 329 592 l 729 592 l 729 0 l 541 0 l 541 436 l 329 436 l 329 0 l 141 0 l 141 436 m 635 690 q 551 722 586 690 q 516 808 516 755 q 551 892 516 859 q 635 925 586 925 q 719 892 684 925 q 754 808 754 859 q 719 722 754 755 q 635 690 684 690 "},"{":{"x_min":36.265625,"x_max":532.625,"ha":575,"o":"m 414 -178 q 333 -168 372 -178 q 263 -136 294 -159 q 214 -75 233 -114 q 196 22 196 -36 l 196 211 q 176 281 196 259 q 116 303 157 303 l 36 303 l 36 461 l 116 461 q 176 482 157 461 q 196 552 196 504 l 196 802 q 214 900 196 861 q 263 962 233 939 q 333 993 294 984 q 414 1003 372 1003 l 532 1003 l 532 845 l 431 845 q 393 833 402 845 q 384 797 384 821 l 384 529 q 348 423 384 454 q 255 382 312 391 q 348 340 312 372 q 384 234 384 309 l 384 27 q 393 -8 384 3 q 431 -20 402 -20 l 532 -20 l 532 -178 l 414 -178 l 414 -178 "},"X":{"x_min":37.5,"x_max":882.015625,"ha":917,"o":"m 345 519 l 88 945 l 309 945 l 405 782 q 427 742 416 764 q 447 700 437 719 q 468 653 458 676 q 484 699 476 675 q 501 740 491 718 q 522 782 511 762 l 613 945 l 820 945 l 568 518 l 882 0 l 659 0 l 511 251 q 488 292 500 269 q 468 336 477 315 q 445 384 456 361 q 427 336 437 359 q 409 293 419 315 q 387 251 398 271 l 241 0 l 37 0 l 345 519 "},"ô":{"x_min":53,"x_max":704,"ha":757,"o":"m 379 145 q 476 186 441 145 q 512 294 512 227 q 476 401 512 360 q 379 443 441 443 q 280 401 316 443 q 245 294 245 360 q 280 186 245 227 q 379 145 316 145 m 379 -13 q 250 9 309 -13 q 147 73 191 32 q 77 170 102 113 q 53 294 53 227 q 77 419 53 362 q 147 517 102 476 q 250 581 191 558 q 379 604 309 604 q 506 581 447 604 q 610 517 566 558 q 679 419 654 476 q 704 294 704 362 q 679 170 704 227 q 610 73 654 113 q 506 9 566 32 q 379 -13 447 -13 m 369 995 l 384 995 l 605 694 l 455 694 l 377 784 l 298 694 l 149 694 l 369 995 "},"¼":{"x_min":55,"x_max":290,"ha":337,"o":"m 173 240 q 89 272 124 240 q 55 358 55 305 q 89 442 55 409 q 173 475 124 475 q 255 442 220 475 q 290 358 290 409 q 255 272 290 305 q 173 240 220 240 "},"#":{"x_min":44.453125,"x_max":686.171875,"ha":731,"o":"m 405 479 l 431 584 l 327 584 l 301 479 l 405 479 m 119 337 l 44 337 l 44 479 l 154 479 l 180 584 l 105 584 l 105 726 l 215 726 l 250 860 l 395 860 l 361 726 l 465 726 l 500 860 l 645 860 l 612 726 l 686 726 l 686 584 l 577 584 l 551 479 l 625 479 l 625 337 l 515 337 l 480 197 l 334 197 l 369 337 l 265 337 l 230 197 l 84 197 l 119 337 "},"Ê":{"x_min":99,"x_max":743.03125,"ha":825,"o":"m 99 945 l 723 945 l 723 774 l 293 774 l 293 474 l 672 474 l 672 307 l 293 307 l 293 171 l 743 171 l 743 0 l 99 0 l 99 945 m 408 1339 l 423 1339 l 644 1039 l 494 1039 l 416 1129 l 337 1039 l 187 1039 l 408 1339 "},")":{"x_min":35.203125,"x_max":410,"ha":478,"o":"m 35 -99 q 109 4 76 -49 q 165 119 142 58 q 200 251 188 180 q 213 404 213 321 q 200 556 213 486 q 165 688 188 626 q 109 804 142 750 q 35 908 76 858 l 147 999 q 240 896 193 954 q 324 766 286 839 q 386 603 362 693 q 410 404 410 512 q 386 206 410 296 q 324 43 362 116 q 240 -87 286 -30 q 147 -190 193 -145 l 35 -99 "},"Å":{"x_min":28.671875,"x_max":892.625,"ha":922,"o":"m 574 270 l 506 433 q 485 487 495 458 q 467 543 476 516 q 449 602 458 572 q 431 543 440 572 q 414 487 423 516 q 394 433 405 458 l 326 270 l 574 270 m 461 1105 q 503 1121 486 1105 q 521 1168 521 1137 q 503 1214 521 1198 q 461 1230 486 1230 q 418 1214 435 1230 q 401 1168 401 1198 q 418 1121 401 1137 q 461 1105 435 1105 m 443 953 l 460 953 l 892 0 l 688 0 l 644 107 l 260 107 l 216 0 l 28 0 l 443 953 m 461 1003 q 390 1016 423 1003 q 333 1052 356 1029 q 295 1104 309 1075 q 282 1168 282 1134 q 295 1231 282 1201 q 333 1284 309 1262 q 390 1319 356 1306 q 461 1333 423 1333 q 531 1319 498 1333 q 588 1284 565 1306 q 626 1231 612 1262 q 640 1168 640 1201 q 626 1104 640 1134 q 588 1052 612 1075 q 531 1016 565 1029 q 461 1003 498 1003 "},"ø":{"x_min":19.671875,"x_max":737.34375,"ha":757,"o":"m 302 158 q 379 138 334 138 q 483 181 445 138 q 522 294 522 224 q 518 339 522 318 l 302 158 m 452 431 q 379 450 419 450 q 273 407 312 450 q 235 294 235 365 q 239 251 235 272 l 452 431 m 656 455 q 704 294 704 384 q 679 170 704 227 q 610 73 654 113 q 506 9 566 32 q 379 -13 447 -13 q 269 3 320 -13 q 176 52 218 20 l 91 -19 l 19 67 l 100 133 q 53 294 53 207 q 77 419 53 362 q 147 517 102 476 q 250 581 191 558 q 379 604 309 604 q 487 587 436 604 q 580 538 538 570 l 665 611 l 737 523 l 656 455 l 656 455 "},"â":{"x_min":42.8125,"x_max":608,"ha":677,"o":"m 294 240 q 242 225 258 240 q 226 185 226 210 q 306 133 226 133 q 393 155 365 133 q 422 216 422 178 l 422 240 l 294 240 m 422 351 q 323 450 417 450 q 239 431 270 450 q 188 395 208 413 l 84 506 q 128 545 105 527 q 181 575 151 562 q 250 596 212 588 q 341 604 288 604 q 446 588 398 604 q 531 539 495 572 q 587 456 567 506 q 608 336 608 405 l 608 0 l 422 0 l 426 81 q 351 8 392 30 q 251 -13 310 -13 q 173 -3 210 -13 q 106 28 135 6 q 60 86 77 50 q 42 173 42 121 q 108 309 42 267 q 284 351 174 351 l 422 351 l 422 351 m 326 995 l 341 995 l 562 694 l 412 694 l 334 784 l 255 694 l 105 694 l 326 995 "},"}":{"x_min":42.375,"x_max":538.734375,"ha":575,"o":"m 42 -20 l 143 -20 q 181 -8 172 -20 q 191 27 191 3 l 191 234 q 226 340 191 309 q 319 382 262 372 q 226 423 262 391 q 191 529 191 454 l 191 797 q 181 833 191 821 q 143 845 172 845 l 42 845 l 42 1003 l 160 1003 q 241 993 202 1003 q 311 962 280 984 q 360 900 341 939 q 379 802 379 861 l 379 552 q 398 482 379 504 q 458 461 417 461 l 538 461 l 538 303 l 458 303 q 398 281 417 303 q 379 211 379 259 l 379 22 q 360 -75 379 -36 q 311 -136 341 -114 q 241 -168 280 -159 q 160 -178 202 -178 l 42 -178 l 42 -20 "},"‰":{"x_min":35,"x_max":1665,"ha":1700,"o":"m 926 127 q 976 147 954 127 q 999 205 999 168 q 976 262 999 241 q 926 283 954 283 q 876 262 898 283 q 854 205 854 241 q 876 147 854 168 q 926 127 898 127 m 1439 127 q 1488 147 1466 127 q 1511 205 1511 168 q 1488 262 1511 241 q 1439 283 1466 283 q 1389 262 1411 283 q 1367 205 1367 241 q 1389 147 1367 168 q 1439 127 1411 127 m 263 442 q 312 462 290 442 q 335 519 335 483 q 312 576 335 555 q 263 597 290 597 q 213 576 235 597 q 191 519 191 555 q 213 462 191 483 q 263 442 235 442 m 926 -13 q 837 2 878 -13 q 765 48 796 18 q 716 116 734 77 q 698 205 698 156 q 716 292 698 252 q 765 361 734 332 q 837 407 796 391 q 926 423 878 423 q 1013 407 972 423 q 1086 361 1055 391 q 1134 292 1116 332 q 1153 205 1153 252 q 1134 116 1153 156 q 1086 48 1116 77 q 1013 2 1055 18 q 926 -13 972 -13 m 1438 -13 q 1350 2 1391 -13 q 1278 48 1309 18 q 1229 116 1247 77 q 1211 205 1211 156 q 1229 292 1211 252 q 1278 361 1247 332 q 1350 407 1309 391 q 1438 423 1391 423 q 1526 407 1484 423 q 1598 361 1567 391 q 1646 292 1628 332 q 1665 205 1665 252 q 1646 116 1665 156 q 1598 48 1628 77 q 1526 2 1567 18 q 1438 -13 1484 -13 m 730 724 l 915 724 l 457 0 l 272 0 l 730 724 m 262 302 q 174 317 215 302 q 102 362 133 333 q 53 431 71 392 q 35 519 35 471 q 53 606 35 566 q 102 676 71 646 q 174 721 133 705 q 262 737 215 737 q 350 721 308 737 q 422 676 391 705 q 470 606 452 646 q 489 519 489 566 q 470 431 489 471 q 422 362 452 392 q 350 317 391 333 q 262 302 308 302 "},"Ä":{"x_min":29.171875,"x_max":893.125,"ha":922,"o":"m 575 270 l 507 433 q 486 487 495 458 q 468 543 476 516 q 449 602 458 572 q 431 543 440 572 q 414 487 423 516 q 394 433 405 458 l 326 270 l 575 270 m 444 953 l 461 953 l 893 0 l 688 0 l 644 107 l 261 107 l 216 0 l 29 0 l 444 953 m 309 1047 q 269 1055 288 1047 q 236 1078 251 1063 q 213 1111 222 1092 q 204 1152 204 1130 q 213 1193 204 1174 q 236 1226 222 1212 q 269 1249 251 1241 q 309 1258 288 1258 q 383 1227 351 1258 q 415 1152 415 1196 q 383 1077 415 1108 q 309 1047 351 1047 m 612 1047 q 572 1055 591 1047 q 539 1078 554 1063 q 516 1111 525 1092 q 507 1152 507 1130 q 516 1193 507 1174 q 539 1226 525 1212 q 572 1249 554 1241 q 612 1258 591 1258 q 686 1227 654 1258 q 718 1152 718 1196 q 686 1077 718 1108 q 612 1047 654 1047 "},"¸":{"x_min":196.546875,"x_max":510,"ha":695,"o":"m 360 -333 q 256 -309 295 -333 q 196 -249 217 -285 l 285 -195 q 307 -222 293 -210 q 345 -234 321 -234 q 379 -222 364 -234 q 394 -187 394 -210 q 379 -151 394 -163 q 338 -140 363 -140 l 291 -140 l 291 0 l 386 0 l 386 -54 q 432 -69 410 -58 q 471 -98 454 -80 q 499 -141 489 -116 q 510 -198 510 -166 q 496 -254 510 -230 q 462 -296 483 -278 q 415 -323 442 -314 q 360 -333 388 -333 "},"a":{"x_min":42.8125,"x_max":608,"ha":677,"o":"m 294 240 q 242 225 258 240 q 226 185 226 210 q 306 133 226 133 q 393 155 365 133 q 422 216 422 178 l 422 240 l 294 240 m 422 351 q 323 450 417 450 q 239 431 270 450 q 188 395 208 413 l 84 506 q 128 545 105 527 q 181 575 151 562 q 250 596 212 588 q 341 604 288 604 q 446 588 398 604 q 531 539 495 572 q 587 456 567 506 q 608 336 608 405 l 608 0 l 422 0 l 426 81 q 351 8 392 30 q 251 -13 310 -13 q 173 -3 210 -13 q 106 28 135 6 q 60 86 77 50 q 42 173 42 121 q 108 309 42 267 q 284 351 174 351 l 422 351 l 422 351 "},"—":{"x_min":41.671875,"x_max":870.90625,"ha":913,"o":"m 41 399 l 870 399 l 870 232 l 41 232 l 41 399 "},"=":{"x_min":50,"x_max":512.546875,"ha":563,"o":"m 50 320 l 512 320 l 512 160 l 50 160 l 50 320 m 50 547 l 512 547 l 512 387 l 50 387 l 50 547 "},"N":{"x_min":99,"x_max":875,"ha":974,"o":"m 379 439 q 342 478 361 455 q 305 519 322 500 q 267 568 286 543 q 274 507 269 537 q 278 450 276 480 q 281 396 281 421 l 281 0 l 99 0 l 99 953 l 118 953 l 594 505 q 630 466 611 489 q 666 425 649 444 q 705 376 686 401 q 699 437 701 407 q 694 494 696 464 q 693 548 693 523 l 693 945 l 875 945 l 875 -8 l 855 -8 l 379 439 "},"˚":{"x_min":168,"x_max":527,"ha":695,"o":"m 347 761 q 390 777 372 761 q 408 823 408 793 q 390 870 408 854 q 347 886 372 886 q 304 870 322 886 q 287 823 287 854 q 304 777 287 793 q 347 761 322 761 m 347 658 q 276 671 309 658 q 219 707 243 684 q 181 760 195 730 q 168 823 168 790 q 181 887 168 856 q 219 940 195 918 q 276 975 243 962 q 347 989 309 989 q 418 975 385 989 q 475 940 451 962 q 513 887 499 918 q 527 823 527 856 q 513 760 527 790 q 475 707 499 730 q 418 671 451 684 q 347 658 385 658 "},"ú":{"x_min":69,"x_max":659,"ha":733,"o":"m 289 -13 q 130 55 192 -13 q 69 249 69 123 l 69 592 l 257 592 l 257 261 q 281 183 257 211 q 355 156 305 156 q 441 186 411 156 q 471 274 471 217 l 471 592 l 659 592 l 659 0 l 471 0 l 475 96 q 399 15 447 43 q 289 -13 351 -13 m 368 956 l 582 956 l 438 695 l 296 695 l 368 956 "},"⁄":{"x_min":-27.78125,"x_max":615.328125,"ha":588,"o":"m 430 725 l 615 725 l 156 0 l -27 0 l 430 725 "},"2":{"x_min":28.921875,"x_max":623,"ha":667,"o":"m 28 16 l 305 309 q 356 363 334 340 q 393 407 378 387 q 415 447 408 427 q 422 488 422 466 q 398 546 422 524 q 334 568 374 568 q 257 535 285 568 q 213 456 228 502 l 38 504 q 78 603 51 559 q 144 676 106 646 q 231 721 183 706 q 333 737 278 737 q 458 716 405 737 q 547 664 512 696 q 599 589 582 631 q 616 501 616 546 q 575 370 616 434 q 470 239 534 306 l 449 216 q 425 194 438 205 q 397 173 411 183 q 365 153 382 162 q 404 156 386 154 q 436 158 420 157 q 461 160 452 160 l 623 160 l 623 0 l 28 0 l 28 16 "},"ü":{"x_min":69,"x_max":661,"ha":735,"o":"m 290 -13 q 130 55 192 -13 q 69 249 69 123 l 69 592 l 257 592 l 257 261 q 281 183 257 211 q 355 156 305 156 q 443 186 413 156 q 473 274 473 217 l 473 592 l 661 592 l 661 0 l 473 0 l 476 96 q 400 15 449 43 q 290 -13 352 -13 m 214 703 q 174 711 193 703 q 141 734 156 719 q 118 767 127 748 q 109 808 109 786 q 118 849 109 830 q 141 882 127 868 q 174 905 156 897 q 214 914 193 914 q 288 883 256 914 q 320 808 320 852 q 288 733 320 764 q 214 703 256 703 m 518 703 q 478 711 497 703 q 445 734 460 719 q 422 767 431 748 q 413 808 413 786 q 422 849 413 830 q 445 882 431 868 q 478 905 460 897 q 518 914 497 914 q 592 883 560 914 q 624 808 624 852 q 592 733 624 764 q 518 703 560 703 "},"¯":{"x_min":177.796875,"x_max":516.703125,"ha":695,"o":"m 177 868 l 516 868 l 516 730 l 177 730 l 177 868 "},"Z":{"x_min":37.5,"x_max":770.890625,"ha":820,"o":"m 37 16 l 470 774 l 113 774 l 113 945 l 770 945 l 770 928 l 338 171 l 747 171 l 747 0 l 37 0 l 37 16 "},"u":{"x_min":69,"x_max":659,"ha":733,"o":"m 289 -13 q 130 55 192 -13 q 69 249 69 123 l 69 592 l 257 592 l 257 261 q 281 183 257 211 q 355 156 305 156 q 441 186 411 156 q 471 274 471 217 l 471 592 l 659 592 l 659 0 l 471 0 l 475 96 q 399 15 447 43 q 289 -13 351 -13 "},"˜":{"x_min":109.734375,"x_max":584.765625,"ha":695,"o":"m 109 706 q 158 853 115 805 q 263 901 201 901 q 313 892 291 901 q 351 873 334 884 q 388 848 375 857 q 418 838 402 838 q 446 853 437 838 q 458 901 455 869 l 584 888 q 536 741 579 789 q 430 694 493 694 q 381 702 402 694 q 343 721 359 710 q 305 746 319 737 q 276 756 291 756 q 236 694 241 756 l 109 706 "},"Ó":{"x_min":67,"x_max":1044,"ha":1111,"o":"m 555 161 q 672 184 619 161 q 764 249 726 208 q 823 348 802 291 q 844 472 844 405 q 823 595 844 538 q 764 694 802 652 q 672 759 726 735 q 555 783 619 783 q 437 759 490 783 q 346 694 384 735 q 287 595 308 652 q 267 472 267 538 q 287 348 267 405 q 346 249 308 291 q 437 184 384 208 q 555 161 490 161 m 555 -13 q 363 23 452 -13 q 209 125 275 60 q 105 278 143 189 q 67 472 67 367 q 105 665 67 576 q 209 818 143 754 q 363 920 275 883 q 555 957 452 957 q 746 920 656 957 q 901 818 835 883 q 1005 665 967 754 q 1044 472 1044 576 q 1005 278 1044 367 q 901 125 967 189 q 746 23 835 60 q 555 -13 656 -13 m 558 1300 l 772 1300 l 627 1039 l 486 1039 l 558 1300 "},"k":{"x_min":73,"x_max":676.3125,"ha":686,"o":"m 261 0 l 73 0 l 73 1003 l 260 1003 l 260 491 q 257 425 260 458 q 251 363 255 391 l 445 592 l 654 591 l 444 350 l 676 0 l 458 0 l 311 223 l 261 170 l 261 0 "},"ˇ":{"x_min":119.453125,"x_max":576.4375,"ha":695,"o":"m 119 968 l 269 968 l 347 877 l 426 968 l 576 968 l 355 668 l 340 668 l 119 968 "},"Ù":{"x_min":94,"x_max":859,"ha":953,"o":"m 477 -13 q 325 8 395 -13 q 203 74 255 30 q 123 185 152 119 q 94 341 94 251 l 94 945 l 288 945 l 288 352 q 334 205 288 248 q 477 162 380 162 q 619 205 574 162 q 665 352 665 248 l 665 945 l 859 945 l 859 341 q 829 185 859 251 q 749 74 800 119 q 628 8 697 30 q 477 -13 558 -13 m 258 1300 l 473 1300 l 546 1039 l 403 1039 l 258 1300 "},"Ÿ":{"x_min":29.640625,"x_max":920.140625,"ha":948,"o":"m 388 300 l 29 945 l 244 945 l 411 640 q 438 584 425 615 q 463 525 451 553 q 488 461 475 493 q 511 525 499 493 q 535 583 522 553 q 561 640 547 614 l 721 945 l 920 945 l 584 314 l 584 0 l 388 0 l 388 300 m 322 1047 q 282 1055 301 1047 q 249 1078 264 1063 q 226 1111 235 1092 q 217 1152 217 1130 q 226 1193 217 1174 q 249 1226 235 1212 q 282 1249 264 1241 q 322 1258 301 1258 q 396 1227 364 1258 q 428 1152 428 1196 q 396 1077 428 1108 q 322 1047 364 1047 m 625 1047 q 585 1055 604 1047 q 552 1078 567 1063 q 529 1111 538 1092 q 520 1152 520 1130 q 529 1193 520 1174 q 552 1226 538 1212 q 585 1249 567 1241 q 625 1258 604 1258 q 699 1227 667 1258 q 731 1152 731 1196 q 699 1077 731 1108 q 625 1047 667 1047 "},"€":{"x_min":36.109375,"x_max":790.34375,"ha":831,"o":"m 36 393 l 36 512 l 144 512 q 279 675 187 613 q 491 738 370 738 q 654 708 587 738 q 775 612 720 679 l 645 504 q 579 560 615 543 q 491 578 543 578 q 345 512 398 578 l 519 512 l 519 393 l 301 393 q 300 377 300 386 q 300 364 300 370 q 300 348 300 357 q 301 335 300 341 l 519 335 l 519 216 l 345 216 q 491 148 400 148 q 592 172 555 148 q 652 232 629 196 l 790 129 q 666 20 736 53 q 491 -13 597 -13 q 379 3 433 -13 q 280 50 325 20 q 200 123 236 80 q 144 216 165 165 l 36 216 l 36 335 l 116 335 q 115 348 115 341 q 115 364 115 357 q 115 377 115 370 q 116 393 115 386 l 36 393 "},"¢":{"x_min":53,"x_max":630.359375,"ha":671,"o":"m 329 437 q 264 386 287 423 q 241 297 241 349 q 264 204 241 243 q 329 151 287 166 l 329 437 l 329 437 m 329 -9 q 218 24 269 -1 q 131 89 168 50 q 73 181 94 129 q 53 297 53 234 q 73 410 53 358 q 130 503 94 463 q 217 568 166 542 q 329 601 267 594 l 329 751 l 422 751 l 422 601 q 540 564 491 594 q 630 485 590 535 l 499 380 q 468 415 488 399 q 422 437 448 430 l 422 149 q 467 170 449 156 q 503 202 485 184 l 627 94 q 540 23 588 50 q 422 -9 491 -2 l 422 -161 l 329 -161 l 329 -9 l 329 -9 "},"ß":{"x_min":73,"x_max":756,"ha":809,"o":"m 454 -8 q 380 -3 412 -8 q 333 7 348 1 l 354 161 q 384 152 369 155 q 420 150 398 150 q 564 297 564 150 q 508 425 564 387 q 362 459 452 462 l 362 607 q 409 618 387 609 q 447 642 430 626 q 472 683 463 658 q 482 744 482 708 q 454 838 482 810 q 374 867 426 867 q 292 831 323 867 q 261 723 261 796 l 261 0 l 73 0 l 73 718 q 95 848 73 791 q 157 943 117 905 q 253 1001 198 982 q 374 1021 309 1021 q 497 1001 444 1021 q 587 946 551 982 q 642 862 623 911 q 661 752 661 812 q 631 634 661 682 q 552 559 602 587 q 700 466 644 532 q 756 291 756 400 q 736 170 756 225 q 678 76 717 115 q 582 14 639 36 q 454 -8 526 -8 "},"é":{"x_min":52.78125,"x_max":694.375,"ha":747,"o":"m 504 347 q 466 423 497 395 q 380 451 436 451 q 288 425 325 451 q 241 347 252 399 l 504 347 m 244 239 q 295 168 258 193 q 397 143 333 143 q 486 158 448 143 q 545 190 523 174 l 652 74 q 551 12 609 37 q 400 -13 493 -13 q 256 9 320 -13 q 147 73 193 32 q 77 171 101 114 q 52 296 52 228 q 77 420 52 363 q 147 517 102 477 q 250 581 191 558 q 379 604 309 604 q 519 576 458 604 q 620 499 580 548 q 679 383 661 449 q 693 239 698 316 l 244 239 l 244 239 m 376 956 l 590 956 l 445 695 l 304 695 l 376 956 "},"s":{"x_min":30.5625,"x_max":543.09375,"ha":585,"o":"m 300 -13 q 133 20 197 -13 q 30 99 69 53 l 140 196 q 208 150 170 167 q 287 134 245 134 q 350 142 333 134 q 368 170 368 150 q 360 189 368 182 q 336 201 352 196 q 295 211 320 206 q 234 227 270 217 q 173 248 204 235 q 118 282 143 260 q 79 337 94 305 q 63 416 63 370 q 81 501 63 466 q 131 560 100 537 q 204 593 162 583 q 293 604 245 604 q 419 581 366 604 q 508 522 472 559 l 408 415 q 357 446 387 433 q 294 460 327 460 q 230 425 230 460 q 259 391 230 400 q 348 369 287 383 q 415 350 380 362 q 478 316 450 337 q 525 263 506 295 q 543 184 543 231 q 531 108 543 144 q 491 44 519 71 q 416 2 462 17 q 300 -13 369 -13 "},"B":{"x_min":99,"x_max":797,"ha":847,"o":"m 471 171 q 566 207 531 171 q 601 301 601 243 q 564 395 601 360 q 460 431 527 431 l 293 431 l 293 171 l 471 171 m 442 596 q 518 620 490 596 q 547 685 547 644 q 522 749 547 725 q 452 774 497 774 l 293 774 l 293 596 l 442 596 m 99 945 l 464 945 q 581 925 530 945 q 667 872 632 906 q 720 794 702 839 q 739 700 739 750 q 703 589 739 633 q 605 526 668 546 q 749 441 702 503 q 797 291 797 380 q 775 175 797 229 q 713 83 753 122 q 613 22 672 44 q 480 0 554 0 l 99 0 l 99 945 "},"…":{"x_min":56,"x_max":971,"ha":1027,"o":"m 174 -8 q 90 24 125 -8 q 56 110 56 57 q 90 194 56 161 q 174 227 125 227 q 256 194 221 227 q 291 110 291 161 q 256 24 291 57 q 174 -8 221 -8 m 514 -8 q 430 24 465 -8 q 396 110 396 57 q 430 194 396 161 q 514 227 465 227 q 596 194 561 227 q 631 110 631 161 q 596 24 631 57 q 514 -8 561 -8 m 854 -8 q 770 24 805 -8 q 736 110 736 57 q 770 194 736 161 q 854 227 805 227 q 936 194 901 227 q 971 110 971 161 q 936 24 971 57 q 854 -8 901 -8 "},"?":{"x_min":47.078125,"x_max":653,"ha":713,"o":"m 328 -8 q 244 24 279 -8 q 210 110 210 57 q 244 194 210 161 q 328 227 279 227 q 410 194 375 227 q 445 110 445 161 q 410 24 445 57 q 328 -8 375 -8 m 241 542 l 305 542 q 425 581 390 542 q 461 673 461 620 q 452 716 461 695 q 429 753 444 737 q 392 780 415 770 q 344 790 370 790 q 254 765 286 790 q 197 699 222 741 l 47 787 q 159 913 84 870 q 344 957 234 957 q 476 933 419 957 q 573 870 533 909 q 632 779 612 830 q 653 673 653 727 q 592 490 653 561 q 416 402 531 419 l 416 321 l 241 321 l 241 542 "},"H":{"x_min":99,"x_max":891,"ha":990,"o":"m 99 945 l 293 945 l 293 461 l 697 461 l 697 945 l 891 945 l 891 0 l 697 0 l 697 287 l 293 287 l 293 0 l 99 0 l 99 945 "},"î":{"x_min":-55.5625,"x_max":401.421875,"ha":349,"o":"m 80 592 l 268 592 l 268 0 l 80 0 l 80 592 m 165 995 l 180 995 l 401 695 l 251 695 l 173 785 l 94 695 l -55 695 l 165 995 "},"c":{"x_min":53,"x_max":625.578125,"ha":663,"o":"m 376 -13 q 248 9 307 -13 q 145 73 189 32 q 77 171 101 114 q 53 296 53 228 q 77 420 53 363 q 145 517 101 477 q 248 581 189 558 q 376 604 307 604 q 523 573 465 604 q 625 485 581 542 l 492 377 q 444 422 475 405 q 376 440 413 440 q 279 399 313 440 q 245 297 245 359 q 279 190 245 231 q 376 150 313 150 q 448 167 421 150 q 496 205 475 184 l 622 94 q 522 16 578 45 q 376 -13 465 -13 "},"¶":{"x_min":44,"x_max":885,"ha":984,"o":"m 424 500 l 424 782 l 383 782 q 289 748 329 782 q 250 641 250 715 q 289 533 250 566 q 383 500 329 500 l 424 500 m 424 337 l 378 337 q 233 360 295 337 q 128 425 170 384 q 65 520 87 466 q 44 636 44 574 q 65 751 44 695 q 128 850 87 807 q 233 919 170 893 q 377 945 295 945 l 885 945 l 885 0 l 700 0 l 700 782 l 609 782 l 609 0 l 424 0 l 424 337 "},"−":{"x_min":55,"x_max":290,"ha":337,"o":"m 173 240 q 89 272 124 240 q 55 358 55 305 q 89 442 55 409 q 173 475 124 475 q 255 442 220 475 q 290 358 290 409 q 255 272 290 305 q 173 240 220 240 "},"•":{"x_min":43.0625,"x_max":341.6875,"ha":385,"o":"m 191 236 q 135 247 162 236 q 87 279 108 259 q 54 326 66 299 q 43 386 43 354 q 54 445 43 417 q 87 493 66 473 q 135 524 108 513 q 191 536 162 536 q 247 524 220 536 q 295 493 275 513 q 329 445 316 473 q 341 386 341 417 q 329 326 341 354 q 295 279 316 299 q 247 247 275 259 q 191 236 220 236 "},"¥":{"x_min":33.9375,"x_max":761.46875,"ha":795,"o":"m 302 134 l 67 134 l 67 253 l 300 253 l 256 331 l 67 331 l 67 450 l 188 450 l 33 725 l 242 725 l 350 511 q 372 462 361 487 q 389 416 382 437 q 404 368 397 391 q 421 416 412 391 q 438 462 428 437 q 460 511 449 487 l 569 725 l 761 725 l 605 450 l 726 450 l 726 331 l 537 331 l 493 253 l 726 253 l 726 134 l 492 134 l 492 0 l 302 0 l 302 134 "},"(":{"x_min":68,"x_max":442.796875,"ha":478,"o":"m 330 -190 q 237 -87 284 -145 q 153 42 191 -30 q 91 205 115 115 q 68 404 68 296 q 91 602 68 512 q 153 765 115 692 q 237 896 191 839 q 330 999 284 954 l 442 908 q 367 804 401 858 q 311 689 334 750 q 276 557 288 628 q 265 404 265 487 q 276 252 265 322 q 311 120 288 182 q 367 4 334 58 q 442 -99 401 -49 l 330 -190 l 330 -190 "},"U":{"x_min":94,"x_max":859,"ha":953,"o":"m 477 -13 q 325 8 395 -13 q 203 74 255 30 q 123 185 152 119 q 94 341 94 251 l 94 945 l 288 945 l 288 352 q 334 205 288 248 q 477 162 380 162 q 619 205 574 162 q 665 352 665 248 l 665 945 l 859 945 l 859 341 q 829 185 859 251 q 749 74 800 119 q 628 8 697 30 q 477 -13 558 -13 "},"◊":{"x_min":55,"x_max":290,"ha":337,"o":"m 173 240 q 89 272 124 240 q 55 358 55 305 q 89 442 55 409 q 173 475 124 475 q 255 442 220 475 q 290 358 290 409 q 255 272 290 305 q 173 240 220 240 "},"Ñ":{"x_min":99,"x_max":875,"ha":974,"o":"m 379 439 q 342 478 361 455 q 305 519 322 500 q 267 568 286 543 q 274 507 269 537 q 278 450 276 480 q 281 396 281 421 l 281 0 l 99 0 l 99 953 l 118 953 l 594 505 q 630 466 611 489 q 666 425 649 444 q 705 376 686 401 q 699 437 701 407 q 694 494 696 464 q 693 548 693 523 l 693 945 l 875 945 l 875 -8 l 855 -8 l 379 439 m 248 1051 q 297 1198 254 1150 q 402 1246 340 1246 q 452 1237 430 1246 q 490 1218 473 1229 q 527 1193 513 1202 q 556 1183 541 1183 q 585 1198 576 1183 q 597 1246 594 1214 l 723 1233 q 675 1086 718 1134 q 569 1039 632 1039 q 520 1047 541 1039 q 481 1066 498 1055 q 444 1091 458 1082 q 415 1101 430 1101 q 375 1039 380 1101 l 248 1051 "},"F":{"x_min":99,"x_max":706.921875,"ha":772,"o":"m 99 945 l 706 945 l 706 774 l 293 774 l 293 461 l 669 461 l 669 287 l 293 287 l 293 0 l 99 0 l 99 945 "},"­":{"x_min":50,"x_max":369.46875,"ha":419,"o":"m 50 420 l 369 420 l 369 253 l 50 253 l 50 420 "},":":{"x_min":62,"x_max":297,"ha":360,"o":"m 180 -8 q 96 24 131 -8 q 62 110 62 57 q 96 194 62 161 q 180 227 131 227 q 262 194 227 227 q 297 110 297 161 q 262 24 297 57 q 180 -8 227 -8 m 180 311 q 96 343 131 311 q 62 429 62 376 q 96 513 62 480 q 180 546 131 546 q 262 513 227 546 q 297 429 297 480 q 262 343 297 376 q 180 311 227 311 "},"Û":{"x_min":94,"x_max":859,"ha":953,"o":"m 477 -13 q 325 8 395 -13 q 203 74 255 30 q 123 185 152 119 q 94 341 94 251 l 94 945 l 288 945 l 288 352 q 334 205 288 248 q 477 162 380 162 q 619 205 574 162 q 665 352 665 248 l 665 945 l 859 945 l 859 341 q 829 185 859 251 q 749 74 800 119 q 628 8 697 30 q 477 -13 558 -13 m 468 1339 l 483 1339 l 705 1039 l 554 1039 l 476 1129 l 397 1039 l 246 1039 l 468 1339 "},"*":{"x_min":58.34375,"x_max":531.984375,"ha":590,"o":"m 252 654 l 138 540 l 58 679 l 215 722 l 58 765 l 138 904 l 252 790 l 212 945 l 376 945 l 336 790 l 450 904 l 531 765 l 370 722 l 531 679 l 450 540 l 336 654 l 376 500 l 212 500 l 252 654 "},"†":{"x_min":43.375,"x_max":459.625,"ha":503,"o":"m 167 656 l 43 656 l 43 810 l 167 810 l 167 945 l 336 945 l 336 810 l 459 810 l 459 656 l 336 656 l 336 335 l 167 335 l 167 656 "},"∕":{"x_min":-27.78125,"x_max":615.328125,"ha":588,"o":"m 430 725 l 615 725 l 156 0 l -27 0 l 430 725 "},"°":{"x_min":36,"x_max":425,"ha":461,"o":"m 230 483 q 280 503 261 483 q 300 555 300 523 q 280 606 300 587 q 230 626 261 626 q 180 606 199 626 q 161 555 161 587 q 180 503 161 523 q 230 483 199 483 m 230 372 q 155 386 190 372 q 93 426 120 401 q 51 484 66 451 q 36 555 36 517 q 51 627 36 594 q 93 684 66 660 q 155 723 120 709 q 230 737 190 737 q 306 723 270 737 q 368 684 341 709 q 409 627 394 660 q 425 555 425 594 q 409 484 425 517 q 368 426 394 451 q 306 386 341 401 q 230 372 270 372 "},"V":{"x_min":29.171875,"x_max":893.125,"ha":922,"o":"m 29 945 l 237 945 l 400 581 q 426 512 413 550 q 450 443 438 475 q 473 367 462 405 q 495 443 483 405 q 519 512 506 475 q 545 581 531 549 l 704 945 l 893 945 l 479 -8 l 459 -8 l 29 945 "},"å":{"x_min":42.8125,"x_max":608,"ha":677,"o":"m 294 240 q 242 225 258 240 q 226 185 226 210 q 306 133 226 133 q 393 155 365 133 q 422 216 422 178 l 422 240 l 294 240 m 337 761 q 379 777 362 761 q 397 823 397 793 q 379 870 397 854 q 337 886 362 886 q 295 870 312 886 q 278 823 278 854 q 295 777 278 793 q 337 761 312 761 m 422 351 q 323 450 417 450 q 239 431 270 450 q 188 395 208 413 l 84 506 q 128 545 105 527 q 181 575 151 562 q 250 596 212 588 q 341 604 288 604 q 446 588 398 604 q 531 539 495 572 q 587 456 567 506 q 608 336 608 405 l 608 0 l 422 0 l 426 81 q 351 8 392 30 q 251 -13 310 -13 q 173 -3 210 -13 q 106 28 135 6 q 60 86 77 50 q 42 173 42 121 q 108 309 42 267 q 284 351 174 351 l 422 351 l 422 351 m 337 658 q 266 671 300 658 q 210 707 233 684 q 172 760 186 730 q 159 823 159 790 q 172 887 159 857 q 210 940 186 918 q 266 975 233 962 q 337 989 300 989 q 408 975 374 989 q 464 940 441 962 q 502 887 488 918 q 516 823 516 857 q 502 760 516 790 q 464 707 488 730 q 408 671 441 684 q 337 658 374 658 "}," ":{"x_min":0,"x_max":0,"ha":253},"0":{"x_min":49,"x_max":819,"ha":868,"o":"m 433 154 q 506 168 472 154 q 566 210 541 183 q 605 276 590 237 q 620 363 620 315 q 605 450 620 412 q 566 516 590 488 q 506 557 541 543 q 433 571 472 571 q 360 557 394 571 q 301 516 326 543 q 262 450 277 488 q 248 363 248 412 q 262 276 248 315 q 301 210 277 237 q 360 168 326 183 q 433 154 394 154 m 433 -13 q 289 14 358 -13 q 166 92 219 42 q 80 212 112 142 q 49 363 49 281 q 80 516 49 447 q 166 634 112 585 q 289 710 219 683 q 433 738 358 738 q 578 710 508 738 q 701 634 648 683 q 787 516 755 585 q 819 363 819 447 q 787 212 819 281 q 701 92 755 142 q 578 14 648 42 q 433 -13 508 -13 "},"”":{"x_min":56,"x_max":582,"ha":638,"o":"m 118 741 q 74 779 93 752 q 56 842 56 806 q 89 922 56 891 q 167 954 122 954 q 246 922 212 954 q 281 844 281 891 q 269 784 281 812 q 239 724 258 756 l 156 583 l 66 583 l 118 741 m 419 741 q 375 779 394 752 q 357 842 357 806 q 390 922 357 891 q 468 954 423 954 q 547 922 513 954 q 582 844 582 891 q 570 784 582 812 q 540 724 559 756 l 457 583 l 367 583 l 419 741 "},"¾":{"x_min":55,"x_max":290,"ha":337,"o":"m 173 240 q 89 272 124 240 q 55 358 55 305 q 89 442 55 409 q 173 475 124 475 q 255 442 220 475 q 290 358 290 409 q 255 272 290 305 q 173 240 220 240 "},"@":{"x_min":54,"x_max":1230,"ha":1284,"o":"m 644 138 q 713 174 686 138 q 741 263 741 210 q 713 352 741 316 q 644 389 686 389 q 567 354 595 389 q 540 263 540 320 q 567 172 540 206 q 644 138 595 138 m 662 -288 q 420 -249 531 -288 q 228 -139 309 -211 q 100 37 147 -66 q 54 273 54 141 q 103 507 54 402 q 235 687 152 612 q 426 803 317 762 q 653 845 534 845 q 889 808 782 845 q 1071 703 995 771 q 1188 539 1146 635 q 1230 327 1230 444 q 1163 78 1230 163 q 973 -7 1097 -7 q 855 15 904 -7 q 781 99 806 38 q 701 13 750 39 q 591 -13 653 -13 q 495 7 540 -13 q 418 63 451 27 q 366 151 385 99 q 348 263 348 202 q 366 376 348 324 q 417 464 385 427 q 494 522 449 501 q 589 543 539 543 q 683 520 647 543 q 740 459 719 497 l 737 529 l 917 529 l 917 216 q 931 149 917 170 q 980 128 946 128 q 1048 174 1024 128 q 1072 324 1072 220 q 1042 494 1072 423 q 958 612 1013 566 q 826 680 903 658 q 654 703 749 703 q 479 672 558 703 q 344 585 401 641 q 256 450 287 529 q 225 275 225 372 q 253 101 225 179 q 336 -31 281 23 q 472 -116 391 -86 q 659 -146 554 -146 q 774 -135 718 -146 q 880 -107 830 -125 l 938 -237 q 809 -276 873 -264 q 662 -288 745 -288 "},"ö":{"x_min":53,"x_max":705,"ha":758,"o":"m 379 145 q 477 186 442 145 q 513 294 513 227 q 477 401 513 360 q 379 443 442 443 q 281 401 317 443 q 245 294 245 360 q 281 186 245 227 q 379 145 317 145 m 379 -13 q 251 9 310 -13 q 147 73 192 32 q 78 170 103 113 q 53 294 53 227 q 78 419 53 362 q 147 517 103 476 q 251 581 192 558 q 379 604 310 604 q 507 581 447 604 q 611 517 567 558 q 679 419 654 476 q 705 294 705 362 q 679 170 705 227 q 611 73 654 113 q 507 9 567 32 q 379 -13 447 -13 m 226 703 q 186 711 205 703 q 153 734 168 719 q 130 767 139 748 q 121 808 121 786 q 130 849 121 830 q 153 882 139 868 q 186 905 168 897 q 226 914 205 914 q 300 883 268 914 q 332 808 332 852 q 300 733 332 764 q 226 703 268 703 m 529 703 q 489 711 508 703 q 456 734 471 719 q 433 767 442 748 q 424 808 424 786 q 433 849 424 830 q 456 882 442 868 q 489 905 471 897 q 529 914 508 914 q 603 883 571 914 q 635 808 635 852 q 603 733 635 764 q 529 703 571 703 "},"i":{"x_min":55,"x_max":293,"ha":349,"o":"m 80 592 l 268 592 l 268 0 l 80 0 l 80 592 m 174 690 q 90 722 125 690 q 55 808 55 755 q 90 892 55 859 q 174 925 125 925 q 258 892 223 925 q 293 808 293 859 q 258 722 293 755 q 174 690 223 690 "},"≤":{"x_min":55,"x_max":290,"ha":337,"o":"m 173 240 q 89 272 124 240 q 55 358 55 305 q 89 442 55 409 q 173 475 124 475 q 255 442 220 475 q 290 358 290 409 q 255 272 290 305 q 173 240 220 240 "},"Õ":{"x_min":67,"x_max":1044,"ha":1111,"o":"m 555 161 q 672 184 619 161 q 764 249 726 208 q 823 348 802 291 q 844 472 844 405 q 823 595 844 538 q 764 694 802 652 q 672 759 726 735 q 555 783 619 783 q 437 759 490 783 q 346 694 384 735 q 287 595 308 652 q 267 472 267 538 q 287 348 267 405 q 346 249 308 291 q 437 184 384 208 q 555 161 490 161 m 555 -13 q 363 23 452 -13 q 209 125 275 60 q 105 278 143 189 q 67 472 67 367 q 105 665 67 576 q 209 818 143 754 q 363 920 275 883 q 555 957 452 957 q 746 920 656 957 q 901 818 835 883 q 1005 665 967 754 q 1044 472 1044 576 q 1005 278 1044 367 q 901 125 967 189 q 746 23 835 60 q 555 -13 656 -13 m 318 1051 q 366 1198 323 1150 q 472 1246 409 1246 q 521 1237 500 1246 q 559 1218 543 1229 q 597 1193 583 1202 q 626 1183 611 1183 q 654 1198 645 1183 q 666 1246 663 1214 l 793 1233 q 744 1086 787 1134 q 638 1039 701 1039 q 589 1047 611 1039 q 551 1066 568 1055 q 513 1091 527 1082 q 484 1101 500 1101 q 444 1039 450 1101 l 318 1051 "},"þ":{"x_min":79,"x_max":717,"ha":771,"o":"m 394 151 q 488 188 453 151 q 523 297 523 226 q 488 401 523 363 q 394 439 453 439 q 297 401 333 439 q 261 297 261 363 q 297 188 261 226 q 394 151 333 151 m 79 1003 l 267 1003 l 267 508 q 340 578 296 552 q 453 604 385 604 q 555 581 507 604 q 639 518 603 559 q 696 421 675 477 q 717 296 717 364 q 695 171 717 228 q 637 73 673 114 q 551 9 600 32 q 448 -13 503 -13 q 335 12 380 -13 q 267 78 290 38 l 267 -294 l 79 -294 l 79 1003 "},"]":{"x_min":41.4375,"x_max":385,"ha":468,"o":"m 41 -20 l 197 -20 l 197 845 l 41 845 l 41 1003 l 385 1003 l 385 -178 l 41 -178 l 41 -20 "},"m":{"x_min":73,"x_max":1028,"ha":1097,"o":"m 73 592 l 261 592 l 256 499 q 330 578 288 553 q 424 604 372 604 q 591 502 538 604 q 676 576 627 548 q 792 604 726 604 q 966 534 905 604 q 1028 342 1028 465 l 1028 0 l 842 0 l 842 326 q 821 405 842 378 q 748 433 801 433 q 669 405 694 433 q 644 316 644 377 l 644 0 l 458 0 l 458 326 q 438 405 458 378 q 366 433 419 433 q 286 405 312 433 q 261 316 261 377 l 261 0 l 73 0 l 73 592 "},"8":{"x_min":49,"x_max":701,"ha":750,"o":"m 375 153 q 470 189 436 153 q 504 277 504 225 q 470 369 504 330 q 375 408 436 408 q 279 369 313 408 q 246 277 246 330 q 279 189 246 225 q 375 153 313 153 m 376 554 q 429 574 408 554 q 451 629 451 595 q 429 683 451 663 q 376 704 408 704 q 321 683 344 704 q 299 629 299 663 q 321 574 299 595 q 376 554 344 554 m 375 -14 q 244 6 304 -14 q 141 63 184 26 q 73 150 97 99 q 49 262 49 201 q 94 403 49 348 q 212 485 140 458 q 143 546 172 509 q 114 642 114 584 q 131 720 114 681 q 182 789 148 759 q 264 839 215 820 q 376 858 313 858 q 488 839 440 858 q 570 789 537 820 q 619 720 602 759 q 636 642 636 681 q 607 546 636 584 q 538 485 578 509 q 655 403 610 458 q 701 262 701 348 q 676 150 701 201 q 609 63 652 99 q 506 6 566 26 q 375 -14 447 -14 "},"ž":{"x_min":31.953125,"x_max":575.046875,"ha":620,"o":"m 31 15 l 288 441 l 63 441 l 63 592 l 575 592 l 575 576 l 312 151 l 552 151 l 552 0 l 31 0 l 31 15 m 87 968 l 237 968 l 315 877 l 394 968 l 544 968 l 323 667 l 308 667 l 87 968 "},"R":{"x_min":99,"x_max":795.890625,"ha":853,"o":"m 354 404 q 527 446 473 404 q 582 587 582 487 q 527 730 582 687 q 354 774 472 774 l 293 774 l 293 404 l 354 404 m 795 0 l 570 0 l 415 238 q 359 234 387 234 l 293 234 l 293 0 l 99 0 l 99 945 l 359 945 q 670 853 558 945 q 782 587 782 761 q 734 405 782 476 q 600 294 687 334 l 795 0 "},"á":{"x_min":42.8125,"x_max":608,"ha":677,"o":"m 294 240 q 242 225 258 240 q 226 185 226 210 q 306 133 226 133 q 393 155 365 133 q 422 216 422 178 l 422 240 l 294 240 m 422 351 q 323 450 417 450 q 239 431 270 450 q 188 395 208 413 l 84 506 q 128 545 105 527 q 181 575 151 562 q 250 596 212 588 q 341 604 288 604 q 446 588 398 604 q 531 539 495 572 q 587 456 567 506 q 608 336 608 405 l 608 0 l 422 0 l 426 81 q 351 8 392 30 q 251 -13 310 -13 q 173 -3 210 -13 q 106 28 135 6 q 60 86 77 50 q 42 173 42 121 q 108 309 42 267 q 284 351 174 351 l 422 351 l 422 351 m 326 956 l 539 956 l 395 695 l 253 695 l 326 956 "},"×":{"x_min":55,"x_max":290,"ha":337,"o":"m 173 240 q 89 272 124 240 q 55 358 55 305 q 89 442 55 409 q 173 475 124 475 q 255 442 220 475 q 290 358 290 409 q 255 272 290 305 q 173 240 220 240 "},"o":{"x_min":53,"x_max":704,"ha":757,"o":"m 379 145 q 476 186 441 145 q 512 294 512 227 q 476 401 512 360 q 379 443 441 443 q 280 401 316 443 q 245 294 245 360 q 280 186 245 227 q 379 145 316 145 m 379 -13 q 250 9 309 -13 q 147 73 191 32 q 77 170 102 113 q 53 294 53 227 q 77 419 53 362 q 147 517 102 476 q 250 581 191 558 q 379 604 309 604 q 506 581 447 604 q 610 517 566 558 q 679 419 654 476 q 704 294 704 362 q 679 170 704 227 q 610 73 654 113 q 506 9 566 32 q 379 -13 447 -13 "},"5":{"x_min":21.84375,"x_max":658,"ha":704,"o":"m 332 -143 q 217 -127 269 -143 q 128 -86 166 -112 q 62 -28 89 -60 q 21 40 35 4 l 185 122 q 234 53 201 82 q 330 24 267 24 q 424 60 391 24 q 458 150 458 97 q 421 243 458 208 q 312 279 384 279 q 204 257 249 279 q 127 210 159 235 l 111 217 l 111 725 l 583 725 l 583 569 l 267 569 l 267 416 q 308 430 280 424 q 368 437 336 437 q 486 414 433 437 q 578 352 540 391 q 637 260 616 313 q 658 148 658 208 q 638 37 658 90 q 578 -55 619 -15 q 477 -119 538 -95 q 332 -143 416 -143 "},"õ":{"x_min":53,"x_max":704,"ha":757,"o":"m 379 145 q 476 186 441 145 q 512 294 512 227 q 476 401 512 360 q 379 443 441 443 q 280 401 316 443 q 245 294 245 360 q 280 186 245 227 q 379 145 316 145 m 379 -13 q 250 9 309 -13 q 147 73 191 32 q 77 170 102 113 q 53 294 53 227 q 77 419 53 362 q 147 517 102 476 q 250 581 191 558 q 379 604 309 604 q 506 581 447 604 q 610 517 566 558 q 679 419 654 476 q 704 294 704 362 q 679 170 704 227 q 610 73 654 113 q 506 9 566 32 q 379 -13 447 -13 m 140 706 q 188 853 145 805 q 294 901 231 901 q 343 892 322 901 q 381 873 365 884 q 419 848 405 857 q 448 838 433 838 q 477 853 468 838 q 488 901 486 869 l 615 888 q 566 741 609 789 q 461 694 523 694 q 411 702 433 694 q 373 721 390 710 q 336 746 350 737 q 306 756 322 756 q 266 694 272 756 l 140 706 "},"7":{"x_min":40.28125,"x_max":638.9375,"ha":675,"o":"m 387 569 l 40 569 l 40 725 l 638 725 l 638 709 l 273 -131 l 80 -131 l 387 569 "},"K":{"x_min":99,"x_max":870.828125,"ha":901,"o":"m 280 460 q 318 537 297 497 q 361 607 338 578 l 611 945 l 831 945 l 515 516 l 870 0 l 636 0 l 384 371 l 293 261 l 293 0 l 99 0 l 99 945 l 293 945 l 293 618 q 288 539 293 583 q 280 460 284 496 "},",":{"x_min":55,"x_max":290,"ha":346,"o":"m 124 6 q 73 48 92 21 q 55 112 55 74 q 64 157 55 137 q 90 194 74 178 q 128 217 106 209 q 173 226 149 226 q 255 193 220 226 q 290 109 290 160 q 276 46 290 74 q 248 -8 263 19 l 166 -160 l 71 -160 l 124 6 "},"d":{"x_min":54,"x_max":691,"ha":765,"o":"m 376 151 q 473 188 437 151 q 509 297 509 226 q 473 401 509 363 q 376 439 437 439 q 282 401 317 439 q 248 297 248 363 q 282 188 248 226 q 376 151 317 151 m 321 -13 q 218 9 267 -13 q 133 73 170 32 q 75 171 96 114 q 54 296 54 228 q 75 421 54 364 q 132 518 96 477 q 216 581 169 559 q 318 604 264 604 q 432 578 389 604 q 503 508 475 552 l 503 1003 l 691 1003 l 691 0 l 503 0 l 507 85 q 435 12 482 38 q 321 -13 389 -13 "},"¨":{"x_min":90,"x_max":605,"ha":695,"o":"m 195 703 q 155 711 174 703 q 122 734 137 719 q 99 767 108 748 q 90 808 90 786 q 99 849 90 830 q 122 882 108 868 q 155 905 137 897 q 195 914 174 914 q 269 883 237 914 q 301 808 301 852 q 269 733 301 764 q 195 703 237 703 m 499 703 q 459 711 478 703 q 426 734 441 719 q 403 767 412 748 q 394 808 394 786 q 403 849 394 830 q 426 882 412 868 q 459 905 441 897 q 499 914 478 914 q 573 883 541 914 q 605 808 605 852 q 573 733 605 764 q 499 703 541 703 "},"Ô":{"x_min":67,"x_max":1044,"ha":1111,"o":"m 555 161 q 672 184 619 161 q 764 249 726 208 q 823 348 802 291 q 844 472 844 405 q 823 595 844 538 q 764 694 802 652 q 672 759 726 735 q 555 783 619 783 q 437 759 490 783 q 346 694 384 735 q 287 595 308 652 q 267 472 267 538 q 287 348 267 405 q 346 249 308 291 q 437 184 384 208 q 555 161 490 161 m 555 -13 q 363 23 452 -13 q 209 125 275 60 q 105 278 143 189 q 67 472 67 367 q 105 665 67 576 q 209 818 143 754 q 363 920 275 883 q 555 957 452 957 q 746 920 656 957 q 901 818 835 883 q 1005 665 967 754 q 1044 472 1044 576 q 1005 278 1044 367 q 901 125 967 189 q 746 23 835 60 q 555 -13 656 -13 m 547 1339 l 562 1339 l 783 1039 l 633 1039 l 555 1129 l 476 1039 l 326 1038 l 547 1339 "},"E":{"x_min":99,"x_max":743.03125,"ha":825,"o":"m 99 945 l 723 945 l 723 774 l 293 774 l 293 474 l 672 474 l 672 307 l 293 307 l 293 171 l 743 171 l 743 0 l 99 0 l 99 945 "},"Y":{"x_min":28.640625,"x_max":919.140625,"ha":947,"o":"m 387 300 l 28 945 l 243 945 l 410 640 q 437 584 424 615 q 462 525 450 553 q 487 461 474 493 q 510 525 498 493 q 534 583 521 553 q 560 640 546 614 l 720 945 l 919 945 l 583 314 l 583 0 l 387 0 l 387 300 "},"\"":{"x_min":50,"x_max":516.703125,"ha":567,"o":"m 50 945 l 250 945 l 229 601 l 70 601 l 50 945 m 315 945 l 516 945 l 495 601 l 337 601 l 315 945 "},"‹":{"x_min":44.453125,"x_max":356.96875,"ha":401,"o":"m 44 277 l 44 288 l 176 518 l 356 518 l 220 283 l 356 44 l 176 44 l 44 277 "},"˙":{"x_min":242,"x_max":453,"ha":695,"o":"m 347 703 q 307 711 326 703 q 274 734 289 719 q 251 767 260 748 q 242 808 242 786 q 251 849 242 830 q 274 882 260 868 q 307 905 289 897 q 347 914 326 914 q 421 883 389 914 q 453 808 453 852 q 421 733 453 764 q 347 703 389 703 "},"ê":{"x_min":52.78125,"x_max":694.375,"ha":747,"o":"m 504 347 q 466 423 497 395 q 380 451 436 451 q 288 425 325 451 q 241 347 252 399 l 504 347 m 244 239 q 295 168 258 193 q 397 143 333 143 q 486 158 448 143 q 545 190 523 174 l 652 74 q 551 12 609 37 q 400 -13 493 -13 q 256 9 320 -13 q 147 73 193 32 q 77 171 101 114 q 52 296 52 228 q 77 420 52 363 q 147 517 102 477 q 250 581 191 558 q 379 604 309 604 q 519 576 458 604 q 620 499 580 548 q 679 383 661 449 q 693 239 698 316 l 244 239 l 244 239 m 365 995 l 380 995 l 601 694 l 451 694 l 373 784 l 294 694 l 144 694 l 365 995 "},"Ï":{"x_min":-58,"x_max":456,"ha":399,"o":"m 103 945 l 297 945 l 297 0 l 103 0 l 103 945 m 47 1047 q 7 1055 26 1047 q -25 1078 -10 1063 q -48 1111 -39 1092 q -58 1152 -58 1130 q -48 1193 -58 1174 q -25 1226 -39 1212 q 7 1249 -10 1241 q 47 1258 26 1258 q 121 1227 89 1258 q 153 1152 153 1196 q 121 1077 153 1108 q 47 1047 89 1047 m 350 1047 q 310 1055 329 1047 q 277 1078 292 1063 q 254 1111 263 1092 q 245 1152 245 1130 q 254 1193 245 1174 q 277 1226 263 1212 q 310 1249 292 1241 q 350 1258 329 1258 q 424 1227 392 1258 q 456 1152 456 1196 q 424 1077 456 1108 q 350 1047 392 1047 "},"„":{"x_min":56,"x_max":582,"ha":638,"o":"m 118 16 q 74 54 93 27 q 56 117 56 81 q 89 197 56 166 q 167 229 122 229 q 246 197 212 229 q 281 119 281 166 q 269 59 281 87 q 239 0 258 31 l 156 -142 l 66 -142 l 118 16 m 419 16 q 375 54 394 27 q 357 117 357 81 q 390 197 357 166 q 468 229 423 229 q 547 197 513 229 q 582 119 582 166 q 570 59 582 87 q 540 0 559 31 l 457 -142 l 367 -142 l 419 16 "},"Â":{"x_min":29.171875,"x_max":893.125,"ha":922,"o":"m 575 269 l 506 433 q 486 487 495 458 q 468 543 476 516 q 450 602 458 572 q 431 543 440 572 q 414 487 423 516 q 394 433 405 458 l 326 269 l 575 269 m 444 953 l 461 953 l 893 0 l 688 0 l 644 106 l 261 106 l 216 0 l 29 0 l 444 953 m 444 1339 l 459 1339 l 680 1038 l 530 1038 l 452 1129 l 373 1038 l 223 1038 l 444 1339 "},"Í":{"x_min":103,"x_max":415.46875,"ha":399,"o":"m 103 945 l 297 945 l 297 0 l 103 0 l 103 945 m 201 1300 l 415 1300 l 271 1039 l 129 1039 l 201 1300 "},"´":{"x_min":277.796875,"x_max":563.9375,"ha":695,"o":"m 350 956 l 563 956 l 419 695 l 277 695 l 350 956 "},"ì":{"x_min":-43.203125,"x_max":268,"ha":349,"o":"m 80 592 l 268 592 l 268 0 l 80 0 l 80 592 m -43 956 l 170 956 l 242 695 l 101 695 l -43 956 "},"Ú":{"x_min":94,"x_max":859,"ha":953,"o":"m 477 -13 q 325 8 395 -13 q 203 74 255 30 q 123 185 152 119 q 94 341 94 251 l 94 945 l 288 945 l 288 352 q 334 205 288 248 q 477 162 380 162 q 619 205 574 162 q 665 352 665 248 l 665 945 l 859 945 l 859 341 q 829 185 859 251 q 749 74 800 119 q 628 8 697 30 q 477 -13 558 -13 m 479 1300 l 694 1300 l 549 1039 l 406 1039 l 479 1300 "},"|":{"x_min":103,"x_max":284,"ha":386,"o":"m 103 1003 l 284 1003 l 284 -178 l 103 -178 l 103 1003 "},"§":{"x_min":38.890625,"x_max":690.328125,"ha":729,"o":"m 477 240 q 518 298 518 259 q 501 345 518 326 q 445 379 484 363 l 302 433 q 273 445 287 438 q 247 458 259 451 q 211 400 211 441 q 225 352 211 372 q 279 318 240 333 l 413 268 q 477 240 447 255 m 163 526 q 123 649 123 578 q 141 734 123 695 q 191 800 159 773 q 267 842 223 827 q 362 858 311 858 q 513 822 456 858 q 608 716 570 787 l 459 644 q 424 689 444 671 q 370 708 404 708 q 316 692 331 708 q 300 656 300 676 q 311 619 300 634 q 351 594 322 605 l 494 541 q 641 454 591 505 q 690 331 690 403 q 656 230 690 269 q 572 167 623 191 q 597 116 588 144 q 607 52 607 88 q 540 -90 607 -38 q 351 -143 473 -143 q 254 -130 300 -143 q 174 -97 209 -118 q 114 -50 138 -77 q 77 5 90 -23 l 223 81 q 266 28 238 49 q 341 8 294 8 q 400 19 380 8 q 419 49 419 30 q 409 78 419 66 q 366 102 398 91 l 236 152 q 86 242 134 191 q 38 370 38 292 q 75 467 38 428 q 163 526 112 506 "},"Ý":{"x_min":28.640625,"x_max":919.140625,"ha":947,"o":"m 387 300 l 28 945 l 243 945 l 410 640 q 437 584 424 615 q 462 525 450 553 q 487 461 474 493 q 510 525 498 493 q 534 583 521 553 q 560 640 546 614 l 720 945 l 919 945 l 583 314 l 583 0 l 387 0 l 387 300 m 478 1300 l 692 1300 l 548 1039 l 406 1039 l 478 1300 "},"b":{"x_min":74,"x_max":711,"ha":765,"o":"m 388 151 q 482 188 447 151 q 517 297 517 226 q 482 401 517 363 q 388 439 447 439 q 291 401 327 439 q 256 297 256 363 q 291 188 256 226 q 388 151 327 151 m 443 -13 q 329 12 375 -13 q 257 85 282 38 l 262 0 l 74 0 l 74 1003 l 262 1003 l 261 508 q 334 578 290 552 q 447 604 379 604 q 549 581 501 604 q 633 518 597 559 q 690 421 669 477 q 711 296 711 364 q 689 171 711 228 q 631 73 668 114 q 546 9 594 32 q 443 -13 497 -13 "},"q":{"x_min":54,"x_max":693,"ha":767,"o":"m 376 151 q 473 188 437 151 q 509 297 509 226 q 473 401 509 363 q 376 439 437 439 q 282 401 317 439 q 248 297 248 363 q 282 188 248 226 q 376 151 317 151 m 505 78 q 435 12 481 38 q 321 -13 389 -13 q 219 9 267 -13 q 133 73 170 32 q 75 171 97 114 q 54 296 54 228 q 75 421 54 364 q 133 518 97 477 q 217 581 169 559 q 318 604 264 604 q 436 575 389 604 q 509 500 482 547 l 504 592 l 693 592 l 693 -294 l 505 -294 l 505 78 "},"Ö":{"x_min":67,"x_max":1045,"ha":1112,"o":"m 556 161 q 673 184 619 161 q 765 249 726 208 q 824 348 803 291 q 845 472 845 405 q 824 595 845 538 q 765 694 803 652 q 673 759 726 735 q 556 783 619 783 q 437 759 490 783 q 346 694 385 735 q 287 595 308 652 q 267 472 267 538 q 287 348 267 405 q 346 249 308 291 q 437 184 385 208 q 556 161 490 161 m 556 -13 q 364 23 453 -13 q 209 125 275 60 q 105 278 143 189 q 67 472 67 367 q 105 665 67 576 q 209 818 143 754 q 364 920 275 883 q 556 957 453 957 q 747 920 657 957 q 902 818 836 883 q 1006 665 968 754 q 1045 472 1045 576 q 1006 278 1045 367 q 902 125 968 189 q 747 23 836 60 q 556 -13 657 -13 m 404 1047 q 364 1055 383 1047 q 331 1078 346 1063 q 308 1111 317 1092 q 299 1152 299 1130 q 308 1193 299 1174 q 331 1226 317 1212 q 364 1249 346 1241 q 404 1258 383 1258 q 478 1227 446 1258 q 510 1152 510 1196 q 478 1077 510 1108 q 404 1047 446 1047 m 706 1047 q 666 1055 685 1047 q 633 1078 648 1063 q 610 1111 619 1092 q 601 1152 601 1130 q 610 1193 601 1174 q 633 1226 619 1212 q 666 1249 648 1241 q 706 1258 685 1258 q 780 1227 748 1258 q 812 1152 812 1196 q 780 1077 812 1108 q 706 1047 748 1047 "},"ﬂ":{"x_min":43.390625,"x_max":729,"ha":810,"o":"m 142 436 l 43 436 l 43 592 l 142 592 l 142 725 q 164 852 142 797 q 227 944 187 907 q 320 1001 266 982 q 434 1021 373 1021 q 549 1003 495 1021 q 642 950 602 986 q 706 862 683 915 q 729 740 729 809 l 729 0 l 541 0 l 541 730 q 509 827 541 801 q 434 853 478 853 q 360 825 390 853 q 330 730 330 798 l 330 592 l 467 592 l 467 436 l 330 436 l 330 0 l 142 0 l 142 436 "},"z":{"x_min":31.953125,"x_max":575.046875,"ha":614,"o":"m 31 15 l 288 441 l 63 441 l 63 592 l 575 592 l 575 576 l 312 151 l 552 151 l 552 0 l 31 0 l 31 15 "},"ã":{"x_min":42.8125,"x_max":608,"ha":677,"o":"m 294 240 q 242 225 258 240 q 226 185 226 210 q 306 133 226 133 q 393 155 365 133 q 422 216 422 178 l 422 240 l 294 240 m 422 351 q 323 450 417 450 q 239 431 270 450 q 188 395 208 413 l 84 506 q 128 545 105 527 q 181 575 151 562 q 250 596 212 588 q 341 604 288 604 q 446 588 398 604 q 531 539 495 572 q 587 456 567 506 q 608 336 608 405 l 608 0 l 422 0 l 426 81 q 351 8 392 30 q 251 -13 310 -13 q 173 -3 210 -13 q 106 28 135 6 q 60 86 77 50 q 42 173 42 121 q 108 309 42 267 q 284 351 174 351 l 422 351 l 422 351 m 90 706 q 138 853 95 805 q 244 901 181 901 q 293 892 272 901 q 331 873 315 884 q 369 848 355 857 q 398 838 383 838 q 427 853 418 838 q 438 901 436 869 l 565 888 q 516 741 559 789 q 411 694 473 694 q 361 702 383 694 q 323 721 340 710 q 286 746 300 737 q 256 756 272 756 q 216 694 222 756 l 90 706 "},"æ":{"x_min":43.0625,"x_max":1063.84375,"ha":1117,"o":"m 294 239 q 226 186 226 239 q 306 133 226 133 q 393 156 365 133 q 422 216 422 179 l 422 239 l 294 239 m 873 349 q 838 422 868 393 q 750 451 808 451 q 659 426 695 451 q 611 349 622 401 l 873 349 m 422 349 q 395 425 419 401 q 323 449 372 449 q 239 431 270 449 q 188 395 208 413 l 84 506 q 128 544 105 527 q 181 575 151 562 q 250 596 212 588 q 341 604 288 604 q 452 583 404 604 q 531 517 500 562 q 625 581 570 558 q 748 604 679 604 q 888 575 827 604 q 990 497 950 547 q 1049 381 1030 448 q 1062 239 1068 315 l 613 238 q 665 167 627 192 q 766 142 702 142 q 855 158 818 142 q 915 189 893 174 l 1022 74 q 920 12 979 37 q 769 -13 862 -13 q 622 12 684 -13 q 520 85 561 38 q 427 12 484 38 q 287 -13 370 -13 q 189 -2 234 -13 q 111 30 144 7 q 61 87 79 52 q 43 173 43 123 q 109 308 43 268 q 284 349 175 349 l 422 349 l 422 349 "},"®":{"x_min":40,"x_max":659,"ha":699,"o":"m 362 651 q 384 659 372 651 q 397 690 397 666 q 384 718 397 709 q 362 726 372 726 l 322 726 l 322 651 l 362 651 m 489 504 l 394 504 l 356 579 l 322 579 l 322 504 l 230 504 l 230 805 l 359 805 q 453 771 420 805 q 487 694 487 737 q 475 640 487 666 q 437 597 463 613 l 489 504 m 347 418 q 441 433 398 418 q 516 480 484 449 q 566 554 548 511 q 585 651 585 597 q 566 752 585 708 q 516 827 548 796 q 441 874 484 858 q 347 890 398 890 q 254 874 297 890 q 179 827 211 858 q 131 752 148 796 q 114 651 114 708 q 131 554 114 597 q 179 480 148 511 q 254 433 211 449 q 347 418 297 418 m 347 351 q 227 373 283 351 q 130 435 172 395 q 64 531 88 476 q 40 654 40 587 q 64 776 40 720 q 130 872 88 831 q 227 934 172 912 q 347 957 283 957 q 468 934 411 957 q 567 872 525 912 q 634 776 610 831 q 659 654 659 720 q 634 531 659 587 q 567 435 610 476 q 468 373 525 395 q 347 351 411 351 "},"É":{"x_min":99,"x_max":743.03125,"ha":825,"o":"m 99 945 l 723 945 l 723 774 l 293 774 l 293 474 l 672 474 l 672 307 l 293 307 l 293 171 l 743 171 l 743 0 l 99 0 l 99 945 m 413 1300 l 627 1300 l 483 1039 l 341 1039 l 413 1300 "},"~":{"x_min":45.84375,"x_max":520.875,"ha":567,"o":"m 45 297 q 94 444 51 396 q 200 492 137 492 q 249 483 227 492 q 287 464 270 475 q 325 439 311 448 q 354 429 338 429 q 382 444 373 429 q 394 492 391 460 l 520 479 q 472 332 515 380 q 366 285 429 285 q 317 293 338 285 q 279 312 295 301 q 241 337 255 328 q 212 347 227 347 q 172 285 177 347 l 45 297 "},"³":{"x_min":55,"x_max":290,"ha":337,"o":"m 173 240 q 89 272 124 240 q 55 358 55 305 q 89 442 55 409 q 173 475 124 475 q 255 442 220 475 q 290 358 290 409 q 255 272 290 305 q 173 240 220 240 "},"¡":{"x_min":79,"x_max":314,"ha":393,"o":"m 301 0 l 91 0 l 122 623 l 270 623 l 301 0 m 195 953 q 279 920 244 953 q 314 834 314 887 q 279 750 314 783 q 195 718 244 718 q 113 750 148 718 q 79 834 79 783 q 113 920 79 887 q 195 953 148 953 "},"[":{"x_min":83,"x_max":426.5625,"ha":468,"o":"m 83 1003 l 426 1003 l 426 845 l 271 845 l 271 -20 l 426 -20 l 426 -178 l 83 -178 l 83 1003 "},"L":{"x_min":99,"x_max":720.8125,"ha":779,"o":"m 99 945 l 293 945 l 293 171 l 720 171 l 720 0 l 99 0 l 99 945 "}," ":{"x_min":0,"x_max":0,"ha":307},"∑":{"x_min":61,"x_max":1044,"ha":1111,"o":"m 555 170 q 672 192 619 170 q 764 255 726 215 q 823 351 802 296 q 844 473 844 407 q 823 596 844 540 q 764 694 802 652 q 672 759 726 735 q 555 783 619 783 q 437 759 490 783 q 346 694 384 735 q 287 596 308 652 q 267 473 267 540 q 287 351 267 407 q 346 255 308 296 q 437 192 384 215 q 555 170 490 170 m 659 18 q 718 -26 687 -9 q 794 -43 749 -43 q 860 -24 833 -43 q 905 16 888 -5 l 1031 -92 q 935 -180 991 -148 q 795 -212 880 -212 q 699 -196 742 -212 q 618 -155 656 -180 q 546 -100 580 -131 q 481 -41 513 -70 q 410 17 445 -7 q 335 42 376 42 q 250 13 284 42 q 190 -52 216 -14 l 61 55 q 183 161 108 129 q 98 301 129 222 q 67 473 67 379 q 105 666 67 578 q 209 820 143 755 q 363 920 275 884 q 555 957 452 957 q 746 920 656 957 q 901 820 835 884 q 1005 666 967 755 q 1044 473 1044 577 q 1014 305 1044 382 q 934 170 985 229 q 812 72 882 111 q 659 18 742 33 "},"%":{"x_min":35,"x_max":1153,"ha":1188,"o":"m 926 127 q 976 147 954 127 q 999 205 999 168 q 976 262 999 241 q 926 283 954 283 q 876 262 898 283 q 854 205 854 241 q 876 147 854 168 q 926 127 898 127 m 263 442 q 312 462 290 442 q 335 519 335 483 q 312 576 335 555 q 263 597 290 597 q 213 576 235 597 q 191 519 191 555 q 213 462 191 483 q 263 442 235 442 m 926 -13 q 837 2 878 -13 q 765 48 796 18 q 716 116 734 77 q 698 205 698 156 q 716 292 698 252 q 765 361 734 332 q 837 407 796 391 q 926 423 878 423 q 1013 407 972 423 q 1086 361 1055 391 q 1134 292 1116 332 q 1153 205 1153 252 q 1134 116 1153 156 q 1086 48 1116 77 q 1013 2 1055 18 q 926 -13 972 -13 m 730 724 l 915 724 l 457 0 l 272 0 l 730 724 m 262 302 q 174 317 215 302 q 102 362 133 333 q 53 431 71 392 q 35 519 35 471 q 53 606 35 566 q 102 676 71 646 q 174 721 133 705 q 262 737 215 737 q 350 721 308 737 q 422 676 391 705 q 470 606 452 646 q 489 519 489 566 q 470 431 489 471 q 422 362 452 392 q 350 317 391 333 q 262 302 308 302 "},"P":{"x_min":99,"x_max":782,"ha":835,"o":"m 354 386 q 527 433 473 386 q 582 579 582 481 q 527 726 582 678 q 354 774 472 774 l 293 774 l 293 386 l 354 386 m 99 945 l 359 945 q 536 919 458 945 q 669 847 615 894 q 752 732 723 800 q 782 579 782 664 q 752 425 782 493 q 669 311 723 358 q 536 240 615 265 q 359 215 458 215 l 293 215 l 293 0 l 99 0 l 99 945 "},"∏":{"x_min":55,"x_max":290,"ha":337,"o":"m 173 240 q 89 272 124 240 q 55 358 55 305 q 89 442 55 409 q 173 475 124 475 q 255 442 220 475 q 290 358 290 409 q 255 272 290 305 q 173 240 220 240 "},"À":{"x_min":29.171875,"x_max":893.125,"ha":922,"o":"m 575 270 l 506 433 q 486 487 495 458 q 468 543 476 516 q 450 602 458 572 q 431 543 440 572 q 414 487 423 516 q 394 433 405 458 l 326 270 l 575 270 m 444 953 l 461 953 l 893 0 l 688 0 l 644 107 l 261 107 l 216 0 l 29 0 l 444 953 m 244 1300 l 458 1300 l 530 1039 l 388 1039 l 244 1300 "},"_":{"x_min":-2.78125,"x_max":395.859375,"ha":393,"o":"m -2 -11 l 395 -11 l 395 -178 l -2 -178 l -2 -11 "},"ñ":{"x_min":73,"x_max":667,"ha":736,"o":"m 73 592 l 261 592 l 256 494 q 333 575 284 547 q 444 604 381 604 q 604 535 541 604 q 667 341 667 467 l 667 0 l 479 0 l 479 328 q 454 405 479 378 q 380 433 430 433 q 292 403 323 433 q 261 316 261 373 l 261 0 l 73 0 l 73 592 m 130 706 q 178 853 135 805 q 284 901 221 901 q 333 892 312 901 q 371 873 355 884 q 409 848 395 857 q 438 838 423 838 q 467 853 458 838 q 479 901 476 869 l 605 888 q 556 741 599 789 q 451 694 513 694 q 401 702 423 694 q 363 721 380 710 q 326 746 340 737 q 297 756 312 756 q 257 694 262 756 l 130 706 "},"+":{"x_min":53.765625,"x_max":516.234375,"ha":571,"o":"m 201 287 l 53 287 l 53 451 l 201 451 l 201 604 l 369 604 l 369 451 l 516 451 l 516 287 l 369 287 l 369 135 l 201 135 l 201 287 "},"‚":{"x_min":56,"x_max":281,"ha":337,"o":"m 118 16 q 74 54 93 27 q 56 117 56 81 q 89 197 56 166 q 167 229 122 229 q 246 197 212 229 q 281 119 281 166 q 269 59 281 87 q 239 0 258 31 l 156 -142 l 65 -142 l 118 16 "},"½":{"x_min":55,"x_max":290,"ha":337,"o":"m 173 240 q 89 272 124 240 q 55 358 55 305 q 89 442 55 409 q 173 475 124 475 q 255 442 220 475 q 290 358 290 409 q 255 272 290 305 q 173 240 220 240 "},"Æ":{"x_min":21.171875,"x_max":1293.03125,"ha":1375,"o":"m 649 275 l 649 544 q 651 589 649 565 q 655 632 653 612 q 662 678 658 655 q 644 636 654 657 q 625 597 636 618 q 603 558 614 576 l 412 275 l 649 275 m 669 945 l 1273 945 l 1273 774 l 843 774 l 843 474 l 1222 474 l 1222 307 l 843 307 l 843 171 l 1293 171 l 1293 0 l 649 0 l 649 107 l 298 107 l 226 0 l 21 0 l 669 945 "},"Ë":{"x_min":99,"x_max":743.03125,"ha":825,"o":"m 99 945 l 723 945 l 723 774 l 293 774 l 293 474 l 672 474 l 672 307 l 293 307 l 293 171 l 743 171 l 743 0 l 99 0 l 99 945 m 264 1047 q 224 1055 243 1047 q 191 1078 206 1063 q 168 1111 177 1092 q 159 1152 159 1130 q 168 1193 159 1174 q 191 1226 177 1212 q 224 1249 206 1241 q 264 1258 243 1258 q 338 1227 306 1258 q 370 1152 370 1196 q 338 1077 370 1108 q 264 1047 306 1047 m 566 1047 q 526 1055 545 1047 q 493 1078 508 1063 q 470 1111 479 1092 q 461 1152 461 1130 q 470 1193 461 1174 q 493 1226 479 1212 q 526 1249 508 1241 q 566 1258 545 1258 q 640 1227 608 1258 q 672 1152 672 1196 q 640 1077 672 1108 q 566 1047 608 1047 "},"'":{"x_min":50,"x_max":250.015625,"ha":300,"o":"m 50 945 l 250 945 l 229 601 l 70 601 l 50 945 "},"Š":{"x_min":17.015625,"x_max":693,"ha":746,"o":"m 371 -13 q 247 2 303 -13 q 147 43 192 17 q 70 106 103 70 q 17 185 37 143 l 175 277 q 251 192 207 225 q 367 159 294 159 q 463 186 428 159 q 499 254 499 213 q 461 330 499 305 q 357 384 423 355 l 308 405 q 212 453 255 427 q 138 515 169 480 q 91 594 108 549 q 75 698 75 638 q 95 800 75 752 q 152 882 115 847 q 241 936 189 917 q 360 956 294 956 q 520 920 453 956 q 636 800 587 885 l 485 703 q 430 767 460 748 q 360 787 401 787 q 292 763 317 787 q 267 703 267 739 q 295 636 267 659 q 386 585 323 613 l 434 564 q 545 509 497 537 q 625 445 593 480 q 675 364 658 409 q 693 258 693 319 q 668 142 693 192 q 601 56 644 91 q 499 4 558 21 q 371 -13 440 -13 m 126 1313 l 277 1313 l 354 1222 l 433 1313 l 583 1313 l 362 1013 l 347 1013 l 126 1313 "},"ª":{"x_min":42.921875,"x_max":530,"ha":594,"o":"m 260 422 q 222 410 233 422 q 210 381 210 398 q 224 354 210 366 q 267 343 237 343 q 339 362 317 343 q 361 408 361 381 l 361 422 l 260 422 m 361 522 q 338 580 358 562 q 281 599 317 599 q 210 583 235 599 q 169 553 185 568 l 67 649 q 103 680 83 664 q 151 708 123 696 q 215 729 179 721 q 302 738 252 738 q 389 724 348 738 q 461 684 430 711 q 511 614 492 657 q 530 512 530 571 l 530 224 l 361 224 l 365 287 q 305 231 341 251 q 222 212 269 212 q 153 221 185 212 q 96 250 120 231 q 57 299 72 270 q 42 369 42 328 q 100 484 42 446 q 245 522 158 522 l 361 522 l 361 522 "},"Œ":{"x_min":65,"x_max":1303.03125,"ha":1385,"o":"m 659 171 l 659 774 l 572 774 q 435 751 493 774 q 339 689 377 729 q 284 594 302 648 q 266 472 266 539 q 284 350 266 405 q 339 255 302 296 q 435 193 377 215 q 572 171 493 171 l 659 171 m 562 0 q 362 34 454 0 q 204 132 270 69 q 101 281 138 194 q 65 472 65 368 q 101 663 65 576 q 204 812 138 750 q 361 910 270 875 q 562 945 452 945 l 1283 945 l 1283 774 l 853 774 l 853 474 l 1232 474 l 1232 307 l 853 307 l 853 171 l 1303 171 l 1303 0 l 562 0 l 562 0 "},"˛":{"x_min":188.90625,"x_max":497.265625,"ha":695,"o":"m 337 -333 q 233 -298 277 -333 q 188 -192 188 -263 q 204 -124 188 -156 q 244 -62 220 -92 l 293 0 l 402 0 l 345 -95 q 327 -126 334 -113 q 316 -149 320 -138 q 311 -168 312 -159 q 309 -190 309 -177 q 348 -230 309 -230 q 383 -219 370 -230 q 405 -194 395 -209 l 497 -246 q 436 -310 473 -288 q 337 -333 400 -333 "},"ð":{"x_min":53,"x_max":704,"ha":757,"o":"m 379 145 q 476 186 441 145 q 512 294 512 227 q 476 401 512 360 q 379 443 441 443 q 280 401 316 443 q 245 294 245 360 q 280 186 245 227 q 379 145 316 145 m 290 656 l 204 741 l 288 823 q 195 908 245 866 l 293 1026 q 349 982 320 1005 q 405 934 377 960 l 483 1009 l 569 924 l 491 850 q 573 748 534 803 q 641 627 612 692 q 687 486 670 562 q 704 323 704 410 q 679 177 704 239 q 610 72 654 114 q 506 8 566 30 q 379 -13 447 -13 q 250 9 309 -13 q 147 73 191 32 q 77 170 102 113 q 53 294 53 227 q 77 419 53 362 q 143 517 102 476 q 237 581 184 558 q 345 604 290 604 q 414 596 384 604 q 468 570 444 588 q 427 650 452 609 q 369 733 402 691 l 290 656 "},"T":{"x_min":44.546875,"x_max":777.46875,"ha":822,"o":"m 314 774 l 44 774 l 44 945 l 777 945 l 777 774 l 508 774 l 508 0 l 314 0 l 314 774 "},"š":{"x_min":30.5625,"x_max":543.09375,"ha":585,"o":"m 300 -13 q 133 20 197 -13 q 30 99 69 53 l 140 196 q 208 150 170 167 q 287 134 245 134 q 350 142 333 134 q 368 170 368 150 q 360 189 368 182 q 336 201 352 196 q 295 211 320 206 q 234 227 270 217 q 173 248 204 235 q 118 282 143 260 q 79 337 94 305 q 63 416 63 370 q 81 501 63 466 q 131 560 100 537 q 204 593 162 583 q 293 604 245 604 q 419 581 366 604 q 508 522 472 559 l 408 415 q 357 446 387 433 q 294 460 327 460 q 230 425 230 460 q 259 391 230 400 q 348 369 287 383 q 415 350 380 362 q 478 316 450 337 q 525 263 506 295 q 543 184 543 231 q 531 108 543 144 q 491 44 519 71 q 416 2 462 17 q 300 -13 369 -13 m 52 968 l 202 968 l 280 877 l 359 968 l 509 968 l 288 667 l 273 667 l 52 968 "},"Þ":{"x_min":99,"x_max":782,"ha":835,"o":"m 354 285 q 527 332 473 285 q 582 477 582 380 q 527 624 582 576 q 354 672 472 672 l 293 672 l 293 285 l 354 285 m 99 945 l 293 945 l 293 843 l 359 843 q 536 818 458 843 q 669 745 615 793 q 752 630 723 698 q 782 477 782 562 q 752 324 782 391 q 669 210 723 257 q 536 138 615 163 q 359 114 458 114 l 293 114 l 293 0 l 99 0 l 99 945 "},"j":{"x_min":-101.953125,"x_max":293,"ha":347,"o":"m 55 -308 q -39 -285 2 -308 q -101 -237 -81 -263 l -8 -126 q 36 -148 16 -148 q 80 -101 80 -148 l 80 592 l 268 592 l 268 -94 q 213 -252 268 -196 q 55 -308 159 -308 m 174 690 q 90 722 125 690 q 55 808 55 755 q 90 892 55 859 q 174 925 125 925 q 258 892 223 925 q 293 808 293 859 q 258 722 293 755 q 174 690 223 690 "},"1":{"x_min":36.09375,"x_max":365,"ha":459,"o":"m 175 569 l 36 569 l 36 725 l 365 725 l 365 0 l 175 0 l 175 569 "},"›":{"x_min":44.453125,"x_max":356.96875,"ha":401,"o":"m 180 278 l 44 518 l 225 518 l 356 284 l 356 273 l 225 44 l 44 44 l 180 278 "},"ı":{"x_min":80,"x_max":268,"ha":349,"o":"m 80 592 l 268 592 l 268 0 l 80 0 l 80 592 "},"ä":{"x_min":42.8125,"x_max":608,"ha":677,"o":"m 294 240 q 242 225 258 240 q 226 185 226 210 q 306 133 226 133 q 393 155 365 133 q 422 216 422 178 l 422 240 l 294 240 m 422 351 q 323 450 417 450 q 239 431 270 450 q 188 395 208 413 l 84 506 q 128 545 105 527 q 181 575 151 562 q 250 596 212 588 q 341 604 288 604 q 446 588 398 604 q 531 539 495 572 q 587 456 567 506 q 608 336 608 405 l 608 0 l 422 0 l 426 81 q 351 8 392 30 q 251 -13 310 -13 q 173 -3 210 -13 q 106 28 135 6 q 60 86 77 50 q 42 173 42 121 q 108 309 42 267 q 284 351 174 351 l 422 351 l 422 351 m 186 703 q 146 711 165 703 q 113 734 128 719 q 90 767 99 748 q 81 808 81 786 q 90 849 81 830 q 113 882 99 868 q 146 905 128 897 q 186 914 165 914 q 260 883 228 914 q 292 808 292 852 q 260 733 292 764 q 186 703 228 703 m 488 703 q 448 711 467 703 q 415 734 430 719 q 392 767 401 748 q 383 808 383 786 q 392 849 383 830 q 415 882 401 868 q 448 905 430 897 q 488 914 467 914 q 562 883 530 914 q 594 808 594 852 q 562 733 594 764 q 488 703 530 703 "},"<":{"x_min":31.953125,"x_max":445.875,"ha":497,"o":"m 31 331 l 31 345 l 445 575 l 445 412 l 297 337 l 445 262 l 445 100 l 31 331 "},"£":{"x_min":26.40625,"x_max":780.3125,"ha":804,"o":"m 275 138 q 239 162 256 154 q 203 170 222 170 q 171 160 184 170 q 159 134 159 150 q 171 109 159 119 q 204 98 184 98 q 247 109 229 98 q 275 138 265 120 m 107 340 l 107 482 l 178 482 q 159 541 167 511 q 152 601 152 571 q 171 702 152 655 q 228 783 190 749 q 322 838 266 818 q 452 859 378 859 q 622 815 551 859 q 733 690 694 771 l 578 598 q 526 669 555 647 q 452 692 498 692 q 371 666 402 692 q 340 590 340 641 q 346 536 340 564 q 363 482 352 509 l 578 482 l 578 340 l 416 340 q 435 269 427 305 q 442 194 442 233 l 442 181 q 499 159 470 168 q 558 150 527 150 q 620 164 594 150 q 670 204 646 179 l 780 91 q 687 13 742 39 q 566 -13 631 -13 q 458 7 505 -13 q 374 55 412 27 q 299 5 342 24 q 208 -13 256 -13 q 75 30 125 -13 q 26 139 26 73 q 38 199 26 173 q 72 244 51 226 q 123 271 94 262 q 184 281 152 281 q 229 278 208 281 q 270 267 251 274 q 257 303 265 285 q 241 340 250 321 l 107 340 "},"¹":{"x_min":55,"x_max":290,"ha":337,"o":"m 173 240 q 89 272 124 240 q 55 358 55 305 q 89 442 55 409 q 173 475 124 475 q 255 442 220 475 q 290 358 290 409 q 255 272 290 305 q 173 240 220 240 "},"t":{"x_min":43.5,"x_max":501.734375,"ha":531,"o":"m 336 -15 q 253 -3 292 -15 q 188 37 215 8 q 146 110 161 65 q 131 222 131 155 l 131 436 l 43 436 l 43 592 l 131 592 l 131 900 l 317 900 l 317 592 l 468 592 l 468 436 l 317 436 l 317 216 q 330 158 317 172 q 365 144 343 144 q 405 153 389 144 q 430 169 421 162 l 501 39 q 440 3 479 21 q 336 -15 401 -15 "},"¬":{"x_min":55,"x_max":290,"ha":337,"o":"m 173 240 q 89 272 124 240 q 55 358 55 305 q 89 442 55 409 q 173 475 124 475 q 255 442 220 475 q 290 358 290 409 q 255 272 290 305 q 173 240 220 240 "},"ù":{"x_min":69,"x_max":659,"ha":733,"o":"m 289 -13 q 130 55 192 -13 q 69 249 69 123 l 69 592 l 257 592 l 257 261 q 281 183 257 211 q 355 156 305 156 q 441 186 411 156 q 471 274 471 217 l 471 592 l 659 592 l 659 0 l 471 0 l 475 96 q 399 15 447 43 q 289 -13 351 -13 m 149 956 l 363 956 l 435 695 l 294 695 l 149 956 "},"W":{"x_min":30.5625,"x_max":1301.5,"ha":1331,"o":"m 30 945 l 236 945 l 373 565 q 391 511 381 540 q 406 455 400 482 q 423 394 415 425 q 441 455 431 425 q 460 512 450 482 q 481 565 470 541 l 663 953 l 683 953 l 868 565 q 889 512 879 541 q 908 455 900 482 q 926 394 918 425 q 943 455 934 425 q 958 511 950 482 q 976 565 966 540 l 1112 945 l 1301 944 l 958 -8 l 938 -8 l 726 447 q 707 491 716 466 q 690 537 697 515 q 673 587 682 562 q 655 537 663 562 q 638 491 647 515 q 619 447 629 466 l 398 -8 l 379 -8 l 30 945 "},"ï":{"x_min":-83,"x_max":431,"ha":349,"o":"m 81 592 l 269 592 l 269 0 l 81 0 l 81 592 m 22 703 q -17 711 1 703 q -50 734 -35 719 q -73 767 -64 748 q -83 808 -83 786 q -73 849 -83 830 q -50 882 -64 868 q -17 905 -35 897 q 22 914 1 914 q 96 883 64 914 q 128 808 128 852 q 96 733 128 764 q 22 703 64 703 m 325 703 q 285 711 304 703 q 252 734 267 719 q 229 767 238 748 q 220 808 220 786 q 229 849 220 830 q 252 882 238 868 q 285 905 267 897 q 325 914 304 914 q 399 883 367 914 q 431 808 431 852 q 399 733 431 764 q 325 703 367 703 "},">":{"x_min":51.390625,"x_max":465.3125,"ha":497,"o":"m 51 262 l 200 337 l 51 412 l 51 575 l 465 343 l 465 329 l 51 100 l 51 262 "},"v":{"x_min":12.5,"x_max":668.109375,"ha":681,"o":"m 12 592 l 219 592 l 302 415 q 322 364 313 391 q 337 313 330 337 q 351 258 344 286 q 363 313 356 286 q 378 364 370 337 q 397 415 386 391 l 477 592 l 668 592 l 351 -13 l 333 -13 l 12 592 "},"û":{"x_min":69,"x_max":659,"ha":733,"o":"m 289 -13 q 130 55 192 -13 q 69 249 69 123 l 69 592 l 257 592 l 257 261 q 281 183 257 211 q 355 156 305 156 q 441 186 411 156 q 471 274 471 217 l 471 592 l 659 592 l 659 0 l 471 0 l 475 96 q 399 15 447 43 q 289 -13 351 -13 m 357 995 l 373 995 l 593 695 l 443 695 l 366 785 l 287 695 l 137 695 l 357 995 "},"Ò":{"x_min":67,"x_max":1044,"ha":1111,"o":"m 555 161 q 672 184 619 161 q 764 249 726 208 q 823 348 802 291 q 844 472 844 405 q 823 595 844 538 q 764 694 802 652 q 672 759 726 735 q 555 783 619 783 q 437 759 490 783 q 346 694 384 735 q 287 595 308 652 q 267 472 267 538 q 287 348 267 405 q 346 249 308 291 q 437 184 384 208 q 555 161 490 161 m 555 -13 q 363 23 452 -13 q 209 125 275 60 q 105 278 143 189 q 67 472 67 367 q 105 665 67 576 q 209 818 143 754 q 363 920 275 883 q 555 957 452 957 q 746 920 656 957 q 901 818 835 883 q 1005 665 967 754 q 1044 472 1044 576 q 1005 278 1044 367 q 901 125 967 189 q 746 23 835 60 q 555 -13 656 -13 m 339 1300 l 552 1300 l 624 1039 l 483 1039 l 339 1300 "},"&":{"x_min":50,"x_max":936.1875,"ha":965,"o":"m 355 434 q 273 363 294 400 q 253 280 253 325 q 291 187 253 220 q 416 155 330 155 q 554 188 491 155 l 355 434 m 433 622 q 507 678 486 651 q 528 737 528 705 q 507 787 528 769 q 455 806 487 806 q 402 786 423 806 q 381 735 381 767 q 396 675 381 699 q 430 626 411 651 l 433 622 l 433 622 m 673 324 q 697 404 688 360 q 707 501 707 448 l 882 501 q 857 325 882 405 q 788 181 833 245 l 936 0 l 707 0 l 659 58 q 545 5 606 23 q 416 -13 483 -13 q 260 7 329 -13 q 145 65 191 28 q 74 153 98 102 q 50 265 50 203 q 63 356 50 316 q 103 428 76 395 q 171 488 130 461 q 268 544 212 516 q 217 638 232 593 q 203 732 203 683 q 219 819 203 778 q 268 889 236 860 q 348 937 301 919 q 452 956 394 956 q 554 940 508 956 q 631 895 599 924 q 679 826 662 867 q 697 736 697 786 q 656 612 697 668 q 524 509 615 557 l 673 324 "},"˝":{"x_min":148.625,"x_max":670.890625,"ha":695,"o":"m 219 956 l 413 956 l 290 695 l 148 695 l 219 956 m 476 956 l 670 956 l 547 695 l 405 695 l 476 956 "},"Ð":{"x_min":17.046875,"x_max":886,"ha":951,"o":"m 379 171 q 516 193 458 171 q 611 255 573 215 q 666 350 648 296 q 685 472 685 405 q 666 594 685 539 q 611 689 648 648 q 516 751 573 729 q 379 774 458 774 l 293 774 l 293 499 l 502 499 l 502 331 l 293 331 l 293 171 l 379 171 m 99 331 l 17 331 l 17 499 l 99 499 l 99 945 l 389 945 q 588 910 497 945 q 746 812 680 875 q 849 663 812 750 q 886 472 886 576 q 849 281 886 368 q 746 132 812 194 q 589 34 680 69 q 389 0 498 0 l 99 0 l 99 331 "},"I":{"x_min":103,"x_max":297,"ha":399,"o":"m 103 945 l 297 945 l 297 0 l 103 0 l 103 945 "},"ˉ":{"x_min":177.796875,"x_max":516.703125,"ha":695,"o":"m 177 868 l 516 868 l 516 730 l 177 730 l 177 868 "},"G":{"x_min":67,"x_max":941,"ha":1026,"o":"m 578 -13 q 369 23 463 -13 q 207 125 275 60 q 103 278 140 189 q 67 472 67 367 q 102 665 67 576 q 200 819 137 754 q 352 919 263 883 q 548 956 441 956 q 890 825 777 956 l 759 694 q 721 728 740 712 q 677 755 702 744 q 621 774 652 767 q 548 781 589 781 q 432 757 484 781 q 343 692 380 733 q 287 595 307 651 q 267 472 267 539 q 287 348 267 405 q 348 249 308 291 q 446 184 388 208 q 578 161 503 161 q 675 169 624 161 q 763 195 726 177 l 763 335 l 535 335 l 535 506 l 941 506 l 941 96 q 885 60 920 80 q 804 25 850 41 q 700 -1 757 9 q 578 -13 642 -13 "},"`":{"x_min":130.5625,"x_max":416.703125,"ha":695,"o":"m 130 956 l 344 956 l 416 695 l 275 695 l 130 956 "},"·":{"x_min":55,"x_max":290,"ha":346,"o":"m 173 240 q 89 272 124 240 q 55 358 55 305 q 89 442 55 409 q 173 475 124 475 q 255 442 220 475 q 290 358 290 409 q 255 272 290 305 q 173 240 220 240 "},"r":{"x_min":73,"x_max":523.53125,"ha":544,"o":"m 73 592 l 261 592 l 258 484 q 295 544 274 520 q 338 581 315 567 q 384 599 361 594 q 431 604 408 604 q 483 597 461 604 q 523 580 505 590 l 463 409 q 428 423 445 418 q 391 428 411 428 q 294 392 327 428 q 261 262 261 357 l 261 0 l 73 0 l 73 592 "},"¿":{"x_min":60,"x_max":665.921875,"ha":713,"o":"m 471 403 l 407 403 q 335 391 364 403 q 287 362 306 380 q 260 320 268 344 q 252 270 252 297 q 260 227 252 248 q 283 190 268 206 q 319 163 297 173 q 368 154 340 154 q 458 178 427 154 q 515 244 490 202 l 665 156 q 553 30 628 73 q 368 -13 478 -13 q 236 10 293 -13 q 140 73 179 34 q 80 165 100 113 q 60 270 60 216 q 120 454 60 383 q 296 541 181 525 l 296 624 l 471 624 l 471 403 m 384 953 q 468 920 433 953 q 503 834 503 887 q 468 750 503 783 q 384 718 433 718 q 302 750 337 718 q 268 834 268 783 q 302 920 268 887 q 384 953 337 953 "},"ý":{"x_min":12.5,"x_max":668.109375,"ha":681,"o":"m 247 55 l 12 592 l 219 592 l 304 364 q 318 317 311 343 q 333 267 326 290 q 345 211 340 239 q 356 267 351 239 q 370 317 362 290 q 386 364 377 343 l 477 592 l 668 592 l 280 -294 l 93 -294 l 247 55 m 355 956 l 569 956 l 425 695 l 283 695 l 355 956 "},"x":{"x_min":22.21875,"x_max":687.5625,"ha":710,"o":"m 250 309 l 51 592 l 272 592 l 320 518 q 336 490 327 505 q 351 459 344 475 q 365 426 358 443 q 379 459 372 443 q 393 490 386 475 q 408 518 400 505 l 455 592 l 655 592 l 459 325 l 687 0 l 465 0 l 397 101 q 377 133 387 115 q 361 168 368 151 q 343 207 351 187 q 325 168 333 187 q 307 133 316 151 q 288 101 298 115 l 222 0 l 22 0 l 250 309 "},"è":{"x_min":52.78125,"x_max":694.375,"ha":747,"o":"m 504 347 q 466 423 497 395 q 380 451 436 451 q 288 425 325 451 q 241 347 252 399 l 504 347 m 244 239 q 295 168 258 193 q 397 143 333 143 q 486 158 448 143 q 545 190 523 174 l 652 74 q 551 12 609 37 q 400 -13 493 -13 q 256 9 320 -13 q 147 73 193 32 q 77 171 101 114 q 52 296 52 228 q 77 420 52 363 q 147 517 102 477 q 250 581 191 558 q 379 604 309 604 q 519 576 458 604 q 620 499 580 548 q 679 383 661 449 q 693 239 698 316 l 244 239 l 244 239 m 170 956 l 384 956 l 456 695 l 315 695 l 170 956 "},"º":{"x_min":54,"x_max":611,"ha":665,"o":"m 332 354 q 409 386 381 354 q 437 474 437 419 q 409 560 437 527 q 332 593 381 593 q 257 560 284 593 q 230 474 230 527 q 257 386 230 419 q 332 354 284 354 m 333 211 q 224 230 274 211 q 135 285 173 249 q 75 369 97 320 q 54 474 54 417 q 75 578 54 530 q 135 662 97 627 q 224 716 173 696 q 333 737 274 737 q 442 716 391 737 q 530 662 492 696 q 589 578 567 627 q 611 474 611 530 q 589 369 611 417 q 530 285 567 320 q 442 230 492 249 q 333 211 391 211 "},"Ø":{"x_min":50.328125,"x_max":1060.671875,"ha":1111,"o":"m 555 159 q 672 183 619 159 q 765 249 726 207 q 824 348 803 291 q 845 471 845 405 q 817 616 845 552 l 389 207 q 555 159 459 159 m 721 734 q 555 785 651 785 q 437 760 490 785 q 345 694 384 736 q 286 595 307 652 q 266 472 266 539 q 294 326 266 390 l 721 734 m 50 92 l 153 190 q 89 320 112 249 q 67 472 67 391 q 105 665 67 576 q 209 818 143 754 q 363 920 275 883 q 555 957 452 957 q 714 932 639 957 q 852 861 789 907 l 952 957 l 1060 850 l 957 752 q 1021 623 998 694 q 1044 472 1044 552 q 1005 278 1044 367 q 901 125 967 189 q 746 23 835 60 q 555 -13 656 -13 q 397 12 472 -13 q 260 81 322 37 q 221 45 240 62 q 189 14 203 28 q 158 -14 172 0 l 50 92 "},"÷":{"x_min":55,"x_max":290,"ha":337,"o":"m 173 240 q 89 272 124 240 q 55 358 55 305 q 89 442 55 409 q 173 475 124 475 q 255 442 220 475 q 290 358 290 409 q 255 272 290 305 q 173 240 220 240 "},"h":{"x_min":74,"x_max":667,"ha":736,"o":"m 74 1003 l 262 1003 l 262 498 q 336 576 289 549 q 445 604 382 604 q 604 535 542 604 q 667 341 667 467 l 667 0 l 479 0 l 479 328 q 454 405 479 378 q 380 433 430 433 q 293 403 324 433 q 262 316 262 373 l 262 0 l 74 0 l 74 1003 "},".":{"x_min":55,"x_max":290,"ha":346,"o":"m 173 -8 q 89 24 124 -8 q 55 110 55 57 q 89 194 55 161 q 173 227 124 227 q 255 194 220 227 q 290 110 290 161 q 255 24 290 57 q 173 -8 220 -8 "},";":{"x_min":62,"x_max":297,"ha":360,"o":"m 131 6 q 80 48 99 21 q 62 112 62 74 q 71 157 62 137 q 97 194 81 178 q 135 217 113 209 q 180 226 156 226 q 262 193 227 226 q 297 109 297 160 q 283 46 297 74 q 255 -8 270 19 l 173 -160 l 78 -160 l 131 6 m 180 311 q 96 343 131 311 q 62 429 62 376 q 96 513 62 480 q 180 546 131 546 q 262 513 227 546 q 297 429 297 480 q 262 343 297 376 q 180 311 227 311 "},"f":{"x_min":42.390625,"x_max":541.515625,"ha":531,"o":"m 141 436 l 42 436 l 42 592 l 141 592 l 141 790 q 359 1021 141 1021 q 465 1002 422 1021 q 541 946 509 983 l 440 821 q 415 843 429 833 q 380 853 402 853 q 342 839 356 853 q 329 793 329 825 l 329 592 l 488 592 l 488 436 l 329 436 l 329 0 l 141 0 l 141 436 "},"“":{"x_min":56,"x_max":582,"ha":638,"o":"m 169 574 q 90 605 124 574 q 56 683 56 636 q 67 743 56 715 q 97 803 78 771 l 180 945 l 271 945 l 218 786 q 262 748 243 775 q 281 685 281 721 q 247 605 281 636 q 169 574 214 574 m 470 574 q 391 605 425 574 q 357 683 357 636 q 368 743 357 715 q 398 803 379 771 l 481 945 l 572 945 l 519 786 q 563 748 544 775 q 582 685 582 721 q 548 605 582 636 q 470 574 515 574 "},"A":{"x_min":29.171875,"x_max":893.125,"ha":922,"o":"m 575 270 l 506 433 q 486 487 495 458 q 468 543 476 516 q 450 602 458 572 q 431 543 440 572 q 414 487 423 516 q 394 433 405 458 l 326 270 l 575 270 m 444 953 l 461 953 l 893 0 l 688 0 l 644 107 l 261 107 l 216 0 l 29 0 l 444 953 "},"6":{"x_min":49,"x_max":690,"ha":739,"o":"m 369 152 q 464 190 431 152 q 498 280 498 229 q 464 369 498 330 q 369 408 431 408 q 274 369 307 408 q 241 280 241 330 q 274 190 241 229 q 369 152 307 152 m 370 -13 q 246 7 305 -13 q 144 66 187 28 q 74 157 100 105 q 49 276 49 210 q 79 421 49 353 q 165 565 110 488 l 367 846 l 578 846 l 408 611 q 381 579 397 595 q 352 552 366 563 q 320 526 337 537 q 368 543 344 537 q 425 550 393 550 q 529 531 480 550 q 612 477 577 512 q 669 392 648 442 q 690 280 690 342 q 665 157 690 212 q 596 65 640 103 q 495 7 552 27 q 370 -13 437 -13 "},"‘":{"x_min":56,"x_max":281,"ha":337,"o":"m 169 574 q 90 605 124 574 q 56 683 56 636 q 67 743 56 715 q 97 803 78 771 l 181 945 l 271 945 l 218 786 q 262 748 243 775 q 281 685 281 721 q 247 605 281 636 q 169 574 214 574 "},"O":{"x_min":67,"x_max":1044,"ha":1111,"o":"m 555 161 q 672 184 619 161 q 764 249 726 208 q 823 348 802 291 q 844 472 844 405 q 823 595 844 538 q 764 694 802 652 q 672 759 726 735 q 555 783 619 783 q 437 759 490 783 q 346 694 384 735 q 287 595 308 652 q 267 472 267 538 q 287 348 267 405 q 346 249 308 291 q 437 184 384 208 q 555 161 490 161 m 555 -13 q 363 23 452 -13 q 209 125 275 60 q 105 278 143 189 q 67 472 67 367 q 105 665 67 576 q 209 818 143 754 q 363 920 275 883 q 555 957 452 957 q 746 920 656 957 q 901 818 835 883 q 1005 665 967 754 q 1044 472 1044 576 q 1005 278 1044 367 q 901 125 967 189 q 746 23 835 60 q 555 -13 656 -13 "},"n":{"x_min":74,"x_max":667,"ha":736,"o":"m 74 592 l 262 592 l 257 494 q 334 575 285 547 q 445 604 382 604 q 604 535 542 604 q 667 341 667 467 l 667 0 l 479 0 l 479 328 q 454 405 479 378 q 380 433 430 433 q 293 403 324 433 q 262 316 262 373 l 262 0 l 74 0 l 74 592 "},"3":{"x_min":21.84375,"x_max":682,"ha":728,"o":"m 346 -143 q 228 -126 280 -143 q 137 -84 177 -110 q 69 -22 98 -58 q 21 51 41 12 l 184 136 q 248 50 207 76 q 346 24 288 24 q 444 61 405 24 q 483 166 483 98 q 437 270 483 234 q 326 306 392 306 q 253 299 280 306 q 206 281 226 293 l 192 298 l 353 521 q 371 543 362 532 q 387 560 380 553 q 403 575 395 569 q 376 571 391 573 q 348 569 363 570 q 319 569 334 569 l 99 569 l 99 725 l 668 725 l 668 709 l 495 473 q 481 455 488 462 q 469 443 474 448 l 458 431 q 542 401 501 423 q 613 345 583 379 q 663 265 644 311 q 682 162 682 219 q 661 49 682 104 q 598 -47 640 -5 q 494 -116 556 -90 q 346 -143 431 -143 "},"9":{"x_min":49,"x_max":690,"ha":739,"o":"m 369 317 q 464 355 431 317 q 498 444 498 394 q 464 533 498 494 q 369 572 431 572 q 274 533 307 572 q 241 444 241 494 q 274 355 241 394 q 369 317 307 317 m 330 114 q 357 146 341 130 q 386 174 372 162 q 418 198 401 187 q 373 180 394 187 q 322 174 352 174 q 215 192 265 174 q 128 246 165 211 q 70 332 92 282 q 49 444 49 382 q 73 566 49 512 q 142 658 98 620 q 243 716 186 696 q 368 737 301 737 q 492 717 433 737 q 594 660 551 698 q 664 569 638 623 q 690 448 690 516 q 682 373 690 409 q 660 304 674 338 q 623 234 645 270 q 573 159 601 199 l 369 -131 l 158 -131 l 330 114 "},"l":{"x_min":78,"x_max":264,"ha":342,"o":"m 78 1003 l 264 1003 l 264 0 l 78 0 l 78 1003 "},"¤":{"x_min":36.109375,"x_max":790.34375,"ha":831,"o":"m 36 393 l 36 512 l 144 512 q 279 675 187 613 q 491 738 370 738 q 654 708 587 738 q 775 612 720 679 l 645 504 q 579 560 615 543 q 491 578 543 578 q 345 512 398 578 l 519 512 l 519 393 l 301 393 q 300 377 300 386 q 300 364 300 370 q 300 348 300 357 q 301 335 300 341 l 519 335 l 519 216 l 345 216 q 491 148 400 148 q 592 172 555 148 q 652 232 629 196 l 790 129 q 666 20 736 53 q 491 -13 597 -13 q 379 3 433 -13 q 280 50 325 20 q 200 123 236 80 q 144 216 165 165 l 36 216 l 36 335 l 116 335 q 115 348 115 341 q 115 364 115 357 q 115 377 115 370 q 116 393 115 386 l 36 393 "},"∂":{"x_min":55,"x_max":290,"ha":337,"o":"m 173 240 q 89 272 124 240 q 55 358 55 305 q 89 442 55 409 q 173 475 124 475 q 255 442 220 475 q 290 358 290 409 q 255 272 290 305 q 173 240 220 240 "},"4":{"x_min":35.578125,"x_max":720.84375,"ha":769,"o":"m 437 266 q 437 292 437 277 q 439 320 438 306 q 444 352 441 335 q 430 334 437 344 q 414 315 423 326 q 396 295 406 305 l 296 189 q 275 169 285 178 q 257 153 266 160 q 239 140 248 145 q 260 141 248 140 q 283 143 270 142 q 312 144 296 144 l 437 144 l 437 266 m 720 144 l 720 0 l 625 0 l 625 -131 l 437 -131 l 437 0 l 35 0 l 35 127 l 605 733 l 625 733 l 625 144 l 720 144 "},"p":{"x_min":74,"x_max":711,"ha":765,"o":"m 388 151 q 482 188 447 151 q 517 297 517 226 q 482 401 517 363 q 388 439 447 439 q 291 401 327 439 q 256 297 256 363 q 291 188 256 226 q 388 151 327 151 m 74 592 l 262 592 l 257 500 q 331 576 285 548 q 447 604 378 604 q 549 581 501 604 q 633 518 597 559 q 690 421 669 477 q 711 296 711 364 q 689 171 711 228 q 631 73 668 114 q 546 9 594 32 q 443 -13 497 -13 q 330 12 375 -13 q 262 78 285 38 l 262 -294 l 74 -294 l 74 592 "},"‡":{"x_min":43.375,"x_max":459.625,"ha":503,"o":"m 167 469 l 43 469 l 43 607 l 167 607 l 167 672 l 43 672 l 43 810 l 167 810 l 167 945 l 336 945 l 336 810 l 459 810 l 459 672 l 336 672 l 336 607 l 459 607 l 459 469 l 336 469 l 336 335 l 167 335 l 167 469 "},"à":{"x_min":42.8125,"x_max":608,"ha":677,"o":"m 294 240 q 242 225 258 240 q 226 185 226 210 q 306 133 226 133 q 393 155 365 133 q 422 216 422 178 l 422 240 l 294 240 m 422 351 q 323 450 417 450 q 239 431 270 450 q 188 395 208 413 l 84 506 q 128 545 105 527 q 181 575 151 562 q 250 596 212 588 q 341 604 288 604 q 446 588 398 604 q 531 539 495 572 q 587 456 567 506 q 608 336 608 405 l 608 0 l 422 0 l 426 81 q 351 8 392 30 q 251 -13 310 -13 q 173 -3 210 -13 q 106 28 135 6 q 60 86 77 50 q 42 173 42 121 q 108 309 42 267 q 284 351 174 351 l 422 351 l 422 351 m 140 956 l 353 956 l 426 695 l 284 695 l 140 956 "},"Ü":{"x_min":95,"x_max":858,"ha":952,"o":"m 477 -13 q 325 8 396 -13 q 204 74 255 30 q 124 185 153 119 q 95 341 95 251 l 95 945 l 289 945 l 289 352 q 334 205 289 248 q 477 162 380 162 q 618 205 573 162 q 664 352 664 248 l 664 945 l 858 945 l 858 341 q 828 185 858 251 q 748 74 799 119 q 627 8 697 30 q 477 -13 558 -13 m 325 1047 q 285 1055 304 1047 q 252 1078 267 1063 q 229 1111 238 1092 q 220 1152 220 1130 q 229 1193 220 1174 q 252 1226 238 1212 q 285 1249 267 1241 q 325 1258 304 1258 q 399 1227 367 1258 q 431 1152 431 1196 q 399 1077 431 1108 q 325 1047 367 1047 m 627 1047 q 587 1055 606 1047 q 554 1078 569 1063 q 531 1111 540 1092 q 522 1152 522 1130 q 531 1193 522 1174 q 554 1226 540 1212 q 587 1249 569 1241 q 627 1258 606 1258 q 701 1227 669 1258 q 733 1152 733 1196 q 701 1077 733 1108 q 627 1047 669 1047 "},"ó":{"x_min":53,"x_max":704,"ha":757,"o":"m 379 145 q 476 186 441 145 q 512 294 512 227 q 476 401 512 360 q 379 443 441 443 q 280 401 316 443 q 245 294 245 360 q 280 186 245 227 q 379 145 316 145 m 379 -13 q 250 9 309 -13 q 147 73 191 32 q 77 170 102 113 q 53 294 53 227 q 77 419 53 362 q 147 517 102 476 q 250 581 191 558 q 379 604 309 604 q 506 581 447 604 q 610 517 566 558 q 679 419 654 476 q 704 294 704 362 q 679 170 704 227 q 610 73 654 113 q 506 9 566 32 q 379 -13 447 -13 m 384 956 l 598 956 l 454 695 l 312 695 l 384 956 "},"√":{"x_min":55,"x_max":290,"ha":337,"o":"m 173 240 q 89 272 124 240 q 55 358 55 305 q 89 442 55 409 q 173 475 124 475 q 255 442 220 475 q 290 358 290 409 q 255 272 290 305 q 173 240 220 240 "}}}
